<ttFont>
          <CharString index="0">
            rmoveto
            121 97 62 134 21 hvcurveto
            39 callsubr
            359 hlineto
            6 36 rlineto
            6 28 2 25 24 vvcurveto
            129 -72 62 -142 -205 -79 -170 -178 -138 79 -64 157 vhcurveto
            -94 331 rmoveto
            81 22 46 43 77 hhcurveto
            55 36 -26 -63 -10 -1 -13 -2 -12 hvcurveto
            return
          </CharString>
          <CharString index="1">
            135 hlineto
            82 149 rlineto
            316 hlineto
            30 -149 rlineto
            132 hlineto
            -147 -21 callsubr
            -161 hlineto
            -110 -429 rmoveto
            98 180 22 39 42 83 9 17 rlinecurve
            5 hlineto
            3 -17 13 -83 8 -40 35 -179 rcurveline
            return
          </CharString>
          <CharString index="2">
            rmoveto
            178 108 87 179 32 hvcurveto
            76 432 rlineto
            -128 -103 callgsubr
            -139 96 -72 170 vhcurveto
            return
          </CharString>
          <CharString index="3">
            -107 callsubr
            endchar
          </CharString>
          <CharString index="4">
            -97 -17 -66 -54 -73 hhcurveto
            -43 -28 17 50 14 3 17 3 18 hvcurveto
            56 318 -81 callsubr
            -58 -325 rlineto
            -5 -29 -5 -26 -24 vvcurveto
            -97 67 -37 86 return
          </CharString>
          <CharString index="5">
            541 25 callsubr
            -414 hlineto
            33 187 rlineto
            364 hlineto
            19 109 rlineto
            -364 hlineto
            30 172 rlineto
            408 hlineto
            19 109 rlineto
            -535 hlineto
            return
          </CharString>
          <CharString index="6">
            -75 callgsubr
            hintmask 01101100
            -104 callgsubr
            hintmask 10101100
            -35 callsubr
            hintmask 10011100
            -27 callgsubr
            hintmask 01101100
            -97 callgsubr
            endchar
          </CharString>
          <CharString index="7">
            rmoveto
            147 150 62 169 hvcurveto
            hintmask 11101100
            216 -379 -52 122 vvcurveto
            55 64 30 95 vhcurveto
            hintmask 11101010
            78 49 -29 -49 -4 0 -7 -3 -14 hvcurveto
            126 hlineto
            4 23 1 15 12 vvcurveto
            112 -113 49 -149 -152 -132 -68 -143 vhcurveto
            hintmask 11101100
            -216 377 60 -136 vvcurveto
            -59 -55 -40 -119 vhcurveto
            hintmask 11110100
            -90 -54 32 56 12 4 16 2 8 hvcurveto
            -129 hlineto
            -4 -15 -4 -24 -18 vvcurveto
            -120 126 -55 160 vhcurveto
            return
          </CharString>
          <CharString index="8">
            rmoveto
            107 hlineto
            19 110 rlineto
            -107 hlineto
            182 -110 rmoveto
            108 hlineto
            20 110 -18 callsubr
            return
          </CharString>
          <CharString index="9">
            rmoveto
            164 109 84 178 30 hvcurveto
            39 220 39 216 -61 callgsubr
            -34 -189 rlineto
            -123 -21 -68 -65 -94 hhcurveto
            hintmask 11110100
            -65 -36 31 58 10 1 11 3 11 hvcurveto
            45 256 -61 callgsubr
            -45 -252 rlineto
            -4 -23 -2 -22 -20 vvcurveto
            -110 61 -58 121 79 64 25 59 46 vhcurveto
            6 hlineto
            -9 -51 rlineto
            -93 -17 -60 -45 -91 hhcurveto
            hintmask 11111000
            -81 -33 23 49 hvcurveto
            -131 -9 hlineto
            -116 92 -55 148 vhcurveto
            endchar
          </CharString>
          <CharString index="10">
            -83 callsubr
            -47 callsubr
            -89 callgsubr
            -477 -81 callgsubr
            return
          </CharString>
          <CharString index="11">
            rmoveto
            108 hlineto
            129 135 rlineto
            -110 hlineto
            -65 -72 -45 72 rlineto
            -99 hlineto
            return
          </CharString>
          <CharString index="12">
            97 17 66 54 73 hhcurveto
            43 28 -17 -50 -14 -3 -17 -3 -18 hvcurveto
            -56 -318 37 callsubr
            58 325 rlineto
            5 29 4 26 24 vvcurveto
            97 -67 37 -85 return
          </CharString>
          <CharString index="13">
            123 hlineto
            73 418 4 19 4 36 2 8 rlinecurve
            5 hlineto
            3 -6 13 -30 13 -24 220 -421 rcurveline
            120 -31 callsubr
            -123 hlineto
            -73 -417 -3 -14 -5 -38 -1 -7 rlinecurve
            -5 -1 -2 6 -16 34 -9 17 rlinecurve
            -221 420 rlineto
            -122 hlineto
            return
          </CharString>
          <CharString index="14">
            rmoveto
            118 hlineto
            21 118 rlineto
            -118 hlineto
            return
          </CharString>
          <CharString index="15">
            44 -72 rlineto
            99 hlineto
            -82 135 rlineto
            -108 hlineto
            -33 -735 -106 callgsubr
            return
          </CharString>
          <CharString index="16">
            rmoveto
            -102 callsubr
            endchar
          </CharString>
          <CharString index="17">
            -99 callgsubr
            -27 -85 callgsubr
            return
          </CharString>
          <CharString index="18">
            -70 callsubr
            -82 135 rlineto
            return
          </CharString>
          <CharString index="19">
            rmoveto
            80 hlineto
            21 7 24 29 53 hhcurveto
            53 16 -29 -21 -1 hvcurveto
            79 hlineto
            1 6 1 6 6 vvcurveto
            56 -44 56 -91 -128 -40 -69 -61 -10 vhcurveto
            return
          </CharString>
          <CharString index="20">
            128 hlineto
            47 265 rlineto
            216 hlineto
            84 -265 rlineto
            136 hlineto
            -96 283 rlineto
            89 29 71 75 115 vvcurveto
            113 -73 71 -155 vhcurveto
            -326 hlineto
            72 -313 rmoveto
            36 204 rlineto
            217 hlineto
            65 33 -31 -53 -74 -50 -46 -77 hvcurveto
            return
          </CharString>
          <CharString index="21">
            13 32 21 70 0 vvcurveto
            4 hlineto
            0 1 -64 2 -38 vhcurveto
            28 -452 rlineto
            152 hlineto
            308 -21 callsubr
            -129 hlineto
            -190 -444 rlineto
            -13 -30 -23 -69 0 vvcurveto
            -5 hlineto
            0 0 70 -2 29 vhcurveto
            -26 444 rlineto
            -162 hlineto
            -181 -444 rlineto
            -10 -23 -23 -76 0 vvcurveto
            -5 hlineto
            0 -1 72 -3 27 vhcurveto
            -37 444 58 callsubr
          </CharString>
          <CharString index="22">
            -56 callgsubr
            -12 -24 -18 -18 -25 -13 rrcurveto
            -112 -103 callgsubr
            -139 96 -72 170 178 108 87 179 32 vhcurveto
            64 366 82 32 46 61 17 101 rlinecurve
            10 54 rlineto
            return
          </CharString>
          <CharString index="23">
            -93 callgsubr
            -364 -77 callsubr
            return
          </CharString>
          <CharString index="24">
            rmoveto
            46 37 13 20 27 hvcurveto
            33 26 19 37 7 34 rrcurveto
            -80 hlineto
            return
          </CharString>
          <CharString index="25">
            rmoveto
            98 35 68 66 12 hvcurveto
            101 574 -81 callsubr
            -100 -566 rlineto
            -29 -5 -18 -16 -29 hhcurveto
            -49 66 callsubr
          </CharString>
          <CharString index="26">
            rlineto
            -120 hlineto
            return
          </CharString>
          <CharString index="27">
            128 hlineto
            49 279 335 407 rlineto
            -142 hlineto
            -237 -293 rlineto
            -5 hlineto
            -139 293 rlineto
            -133 hlineto
            193 -407 rlineto
            return
          </CharString>
          <CharString index="28">
            rmoveto
            132 84 67 140 25 hvcurveto
            87 491 rlineto
            -129 hlineto
            -87 -491 rlineto
            -66 -11 -40 -33 -64 hhcurveto
            -54 -22 23 47 8 2 22 8 30 hvcurveto
            -127 hlineto
            -9 -38 -2 -25 -21 vvcurveto
            -102 73 -52 134 vhcurveto
            endchar
          </CharString>
          <CharString index="29">
            rmoveto
            91 hlineto
            -58 -73 callgsubr
            rlineto
            return
          </CharString>
          <CharString index="30">
            -868 rmoveto
            -102 callsubr
            return
          </CharString>
          <CharString index="31">
            rmoveto
            127 hlineto
            hintmask 11011000
            115 274 rlineto
            19 43 23 69 0 vvcurveto
            5 hlineto
            0 0 -70 3 -43 vhcurveto
            hintmask 10110100
            18 -273 rlineto
            126 hlineto
            250 -57 callsubr
            -107 -246 rlineto
            -21 -48 -33 -92 0 vvcurveto
            -5 hlineto
            0 -4 99 -3 41 vhcurveto
            hintmask 10111000
            -19 246 rlineto
            -130 hlineto
            -102 -245 rlineto
            -15 -37 -38 -104 0 vvcurveto
            -4 hlineto
            0 -5 108 -3 34 vhcurveto
            -22 244 rlineto
            -119 hlineto
            endchar
          </CharString>
          <CharString index="32">
            rlineto
            29 5 18 16 29 hhcurveto
            51 hlineto
            15 83 rlineto
            8 -20 -37 7 -31 hhcurveto
            -101 -37 -69 -68 -12 hvcurveto
            -11 -68 rlineto
            -76 hlineto
            -18 -98 rlineto
            76 hlineto
            -82 -467 rlineto
            -29 -5 -18 -16 -29 hhcurveto
            -51 hlineto
            -15 -83 rlineto
            return
          </CharString>
          <CharString index="33">
            733 -93 callgsubr
            return
          </CharString>
          <CharString index="34">
            36 300 rmoveto
            -68 -29 30 65 100 37 122 120 65 32 -35 -66 -96 -43 -120 -114 hvcurveto
            endchar
          </CharString>
          <CharString index="35">
            -65 -12 -59 callsubr
            return
          </CharString>
          <CharString index="36">
            738 -83 callsubr
            -47 callsubr
            -89 callgsubr
            return
          </CharString>
          <CharString index="37">
            44 -72 rlineto
            99 hlineto
            return
          </CharString>
          <CharString index="38">
            rmoveto
            82 468 rlineto
            146 hlineto
            110 60 -54 -111 -24 -3 -24 -7 -39 hvcurveto
            -137 -24 -92 -79 -132 hhcurveto
            return
          </CharString>
          <CharString index="39">
            -63 callgsubr
            -64 -60 -32 -40 -38 vhcurveto
            -6 hlineto
            return
          </CharString>
          <CharString index="40">
            74 98 15 86 -19 callgsubr
            -17 -96 49 callsubr
          </CharString>
          <CharString index="41">
            rmoveto
            -65 callsubr
            return
          </CharString>
          <CharString index="42">
            120 -49 callgsubr
            return
          </CharString>
          <CharString index="43">
            rmoveto
            18 callsubr
            hintmask 10011100
            19 113 rlineto
            hintmask 10101100
            0 -20 9 -32 -68 -36 -45 -50 -27 vhcurveto
            -7 hlineto
            hintmask 11001100
            2 83 rlineto
            -97 hlineto
            endchar
          </CharString>
          <CharString index="44">
            -166 -91 -91 -162 -26 hvcurveto
            -5 -27 -2 -27 -28 vvcurveto
            -74 callgsubr
            return
          </CharString>
          <CharString index="45">
            rmoveto
            55 callgsubr
            hvcurveto
            7 hlineto
            return
          </CharString>
          <CharString index="46">
            139 0 109 481 108 hstem
            47 126 436 134 vstem
            -25 hmoveto
            323 hlineto
            17 97 rlineto
            -91 18 -51 50 96 vvcurveto
            20 3 21 7 44 vhcurveto
            169 30 91 75 140 hhcurveto
            106 59 -52 -114 -24 -3 -26 -8 -49 hvcurveto
            -23 -140 -77 -67 -116 -22 -17 -96 rcurveline
            324 hlineto
            19 109 rlineto
            -47 hlineto
            -26 -38 -8 -2 -36 hvcurveto
            108 65 74 115 156 vvcurveto
            170 -112 93 -193 -236 -155 -176 -226 -86 34 -66 56 -45 vhcurveto
            3 -39 -36 7 -21 hhcurveto
            -46 hlineto
            endchar
          </CharString>
          <CharString index="47">
            -71 97 vlineto
            -50 callsubr
            return
          </CharString>
          <CharString index="48">
            98 -98 -44 callgsubr
            return
          </CharString>
          <CharString index="49">
            -72 callgsubr
            -260 hlineto
            26 -577 -69 callsubr
            return
          </CharString>
          <CharString index="50">
            526 -81 callsubr
            return
          </CharString>
          <CharString index="51">
            78 0 109 207 78 183 30 callgsubr
            393 686 rmoveto
            -260 hlineto
            -52 -292 rlineto
            -66 hlineto
            -13 -78 rlineto
            66 hlineto
            -56 -316 rlineto
            -72 callgsubr
            154 -361 rmoveto
            -137 -24 -92 -79 -132 hhcurveto
            -140 hlineto
            36 207 rlineto
            151 hlineto
            14 78 rlineto
            -151 hlineto
            32 183 rlineto
            146 hlineto
            110 60 -54 -111 -24 -3 -24 -7 -39 hvcurveto
            endchar
          </CharString>
          <CharString index="52">
            134 -11 -45 callsubr
            return
          </CharString>
          <CharString index="53">
            35 131 447 132 return
          </CharString>
          <CharString index="54">
            rmoveto
            -67 -30 34 75 101 34 137 121 67 33 -38 -71 -110 -43 -128 -115 hvcurveto
            return
          </CharString>
          <CharString index="55">
            98 hlineto
            123 -16 callsubr
            -125 hlineto
            71 -132 rmoveto
            99 hlineto
            122 -16 callsubr
            -124 hlineto
            return
          </CharString>
          <CharString index="56">
            rmoveto
            95 hlineto
            68 -16 callsubr
            -114 hlineto
            return
          </CharString>
          <CharString index="57">
            -58 callgsubr
            -50 -283 rlineto
            return
          </CharString>
          <CharString index="58">
            rmoveto
            111 hlineto
            return
          </CharString>
          <CharString index="59">
            -68 -152 -21 161 104 -72 -21 22 34 callsubr
            hstemhm
            -25 580 hintmask 10011100
            -25 -173 -20 callsubr
            hintmask 10101100
            30 172 rlineto
            hintmask 11001100
            -8 18 20 -3 22 hhcurveto
            68 66 37 46 38 hvcurveto
            7 hlineto
            hintmask 10011100
            -71 98 vlineto
            -58 callgsubr
            -51 -283 rlineto
            hintmask 11001100
            -97 -17 -66 -54 -73 hhcurveto
            -43 -28 17 50 14 3 17 3 18 hvcurveto
            56 318 -81 callsubr
            endchar
          </CharString>
          <CharString index="60">
            -21 -7 -28 -29 -52 hhcurveto
            return
          </CharString>
          <CharString index="61">
            26 8 13 9 18 return
          </CharString>
          <CharString index="62">
            108 493 108 return
          </CharString>
          <CharString index="63">
            -77 callsubr
            endchar
          </CharString>
          <CharString index="64">
            18 122 256 120 return
          </CharString>
          <CharString index="65">
            -12 -40 callsubr
            return
          </CharString>
          <CharString index="66">
            109 34 callgsubr
            return
          </CharString>
          <CharString index="67">
            95 151 85 124 95 return
          </CharString>
          <CharString index="68">
            -1 callgsubr
            hstem
            556 131 vstem
            12 hmoveto
            -87 callsubr
            return
          </CharString>
          <CharString index="69">
            vvcurveto
            -57 46 -19 44 23 22 5 9 26 vhcurveto
            10 54 rlineto
            -27 hlineto
            -31 -11 17 22 33 26 33 21 17 hvcurveto
            return
          </CharString>
          <CharString index="70">
            134 -12 108 -75 -21 261 106 223 108 return
          </CharString>
          <CharString index="71">
            hstemhm
            6 120 -68 125 164 125 -95 122 return
          </CharString>
          <CharString index="72">
            15 82 rlineto
            -33 hlineto
            return
          </CharString>
          <CharString index="73">
            -21 576 110 hstem
            64 588 vstem
            183 hmoveto
            -8 callsubr
            return
          </CharString>
          <CharString index="74">
            -173 118 return
          </CharString>
          <CharString index="75">
            138 hlineto
            97 149 rlineto
            321 hlineto
            14 -149 rlineto
            378 25 callsubr
            -286 hlineto
            -18 187 rlineto
            287 hlineto
            19 109 rlineto
            -317 hlineto
            -16 172 rlineto
            407 hlineto
            19 109 rlineto
            -606 hlineto
            -152 -429 rmoveto
            208 320 rlineto
            5 hlineto
            29 -320 rlineto
            endchar
          </CharString>
          <CharString index="76">
            hlineto
            -27 callsubr
            return
          </CharString>
          <CharString index="77">
            -99 callgsubr
            -129 -135 rlineto
            111 hlineto
            220 29 callgsubr
            return
          </CharString>
          <CharString index="78">
            127 723 -81 callsubr
            return
          </CharString>
          <CharString index="79">
            rlineto
            221 hlineto
            19 110 rlineto
            -568 hlineto
            -20 -110 rlineto
            221 hlineto
            return
          </CharString>
          <CharString index="80">
            121 -21 callsubr
            return
          </CharString>
          <CharString index="81">
            hstemhm
            19 125 hintmask 00000000
            hintmask 10101100
            -15 callsubr
            hintmask 01011100
            -57 callgsubr
            hintmask 10101100
            -145 70 -63 116 vhcurveto
            hintmask 01101100
            return
          </CharString>
          <CharString index="82">
            497 hlineto
            77 callsubr
            -370 hlineto
            102 575 -61 callgsubr
            return
          </CharString>
          <CharString index="83">
            rlineto
            44 hlineto
            28 9 -6 -13 -23 -19 -6 -28 hvcurveto
            -93 hlineto
            return
          </CharString>
          <CharString index="84">
            hstem
            56 128 vstem
            return
          </CharString>
          <CharString index="85">
            -182 98 99 103 317 103 -12 -20 return
          </CharString>
          <CharString index="86">
            686 rlineto
            return
          </CharString>
          <CharString index="87">
            rmoveto
            -34 callgsubr
            return
          </CharString>
          <CharString index="88">
            -21 296 110 280 -20 hstem
            12 701 vstem
            12 hmoveto
            -4 callgsubr
            return
          </CharString>
          <CharString index="89">
            rlineto
            -42 callgsubr
            return
          </CharString>
          <CharString index="90">
            rmoveto
            65 hlineto
            89 67 callsubr
            -125 hlineto
            -23 -127 rlineto
            50 hlineto
            return
          </CharString>
          <CharString index="91">
            129 -1 3 rlineto
            return
          </CharString>
          <CharString index="92">
            205 -12 rmoveto
            61 57 30 52 40 hvcurveto
            6 hlineto
            return
          </CharString>
          <CharString index="93">
            29 callsubr
            endchar
          </CharString>
          <CharString index="94">
            hstemhm
            396 94.5 -82.5 99 return
          </CharString>
          <CharString index="95">
            23 -12 108 105 108 377 -20 return
          </CharString>
          <CharString index="96">
            -16 -9 -7 -25 return
          </CharString>
          <CharString index="97">
            128 hlineto
            52 296 rlineto
            325 hlineto
            -53 -296 rlineto
            128 hlineto
            return
          </CharString>
          <CharString index="98">
            hintmask 11010100
            16 hmoveto
            18 callsubr
            hintmask 11001100
            19 113 rlineto
            hintmask 11010100
            0 -20 9 -32 -68 -36 -45 -50 -27 vhcurveto
            -7 hlineto
            hintmask 11100100
            2 83 rlineto
            -97 hlineto
            return
          </CharString>
          <CharString index="99">
            128 hlineto
            101 576 -28 callsubr
            return
          </CharString>
          <CharString index="100">
            7 callgsubr
            10 54 rlineto
            -27 hlineto
            -31 -11 17 22 hvcurveto
            hintmask 01100000
            33 26 33 21 17 vhcurveto
            4 -75 vlineto
            hintmask 10100000
            -35 -26 -39 -36 -56 vvcurveto
            -57 46 -19 44 vhcurveto
            endchar
          </CharString>
          <CharString index="101">
            rmoveto
            67 hlineto
            -46 callsubr
            -96 callgsubr
            -27 -179 -49 callsubr
            return
          </CharString>
          <CharString index="102">
            -5 29 39 -3 35 hhcurveto
            55 87 14 71 43 -38 18 -47 2 hvcurveto
            return
          </CharString>
          <CharString index="103">
            -45 callgsubr
            53 132 hstem
            -43 callsubr
            vstem
            return
          </CharString>
          <CharString index="104">
            165 -480 -75 callgsubr
            return
          </CharString>
          <CharString index="105">
            -20 callgsubr
            70 132 hstem
            return
          </CharString>
          <CharString index="106">
            -27 hlineto
            -11 -64 rlineto
            31 hlineto
            27 22 -8 -28 -40 -28 -17 -33 -30 -16 12 23 4 0 4 2 13 hvcurveto
            -76 hlineto
            -3 -15 0 -11 -7 vvcurveto
            -54 42 -33 81 vhcurveto
            return
          </CharString>
          <CharString index="107">
            20 146 rmoveto
            25 15 -16 -22 -30 -24 -25 -31 -25 -14 16 21 30 21 26 33 hvcurveto
            148 -592 -75 callgsubr
            return
          </CharString>
          <CharString index="108">
            -735 -62 callsubr
            return
          </CharString>
          <CharString index="109">
            115 0 140 246 140 0 -20 return
          </CharString>
          <CharString index="110">
            rlineto
            55 10 39 32 60 hhcurveto
            50 27 -25 -46 -7 -1 -9 -3 -22 hvcurveto
            119 hlineto
            5 25 1 13 22 vvcurveto
            101 -76 46 -123 -126 return
          </CharString>
          <CharString index="111">
            -26 -8 -13 -9 -18 -48 -35 35 -53 hhcurveto
            -64 -35 -54 -62 -10 hvcurveto
            67 hlineto
            return
          </CharString>
          <CharString index="112">
            608 -43 callgsubr
            return
          </CharString>
          <CharString index="113">
            hstemhm
            37 131 -86 130 hintmask 11110100
            return
          </CharString>
          <CharString index="114">
            -182 98 99 104 407 -20 return
          </CharString>
          <CharString index="115">
            -21 434 104 -12 -20 return
          </CharString>
          <CharString index="116">
            rmoveto
            76 hlineto
            13 74 rlineto
            42 hlineto
            11 64 rlineto
            -41 hlineto
            27 158 rlineto
            -43 hlineto
            -14 -33 -19 -34 -16 -26 -11 -65 rcurveline
            -87 hlineto
            34 39 return
          </CharString>
          <CharString index="117">
            vstem
            120 5 callsubr
            -127 29 callsubr
            return
          </CharString>
          <CharString index="118">
            vvcurveto
            59 -45 30 -71 -65 -55 -40 -62 -10 vhcurveto
            -3 -14 rlineto
            76 hlineto
            2 return
          </CharString>
          <CharString index="119">
            rmoveto
            90 hlineto
            671 710 rlineto
            -90 hlineto
            return
          </CharString>
          <CharString index="120">
            hlineto
            23 127 rlineto
            return
          </CharString>
          <CharString index="121">
            -65 -42 -90 -2 vhcurveto
            74 hlineto
            4 20 rlineto
            31 5 20 17 35 hhcurveto
            return
          </CharString>
          <CharString index="122">
            -20 -173 -20 callsubr
            41 234 rlineto
            6 hlineto
            -47 31 48 -26 77 hhcurveto
            164 84 178 164 145 return
          </CharString>
          <CharString index="123">
            hstemhm
            -54 callsubr
            return
          </CharString>
          <CharString index="124">
            -311 214 112 hstem
            25 270 vstem
            25 214 rmoveto
            251 hlineto
            19 112 rlineto
            -251 hlineto
            endchar
          </CharString>
          <CharString index="125">
            -34 callgsubr
            47 270 rlineto
            100 18 53 46 83 hhcurveto
            38 hlineto
            return
          </CharString>
          <CharString index="126">
            -79 200 150 200 rlineto
            -98 hlineto
            -169 -200 rlineto
            return
          </CharString>
          <CharString index="127">
            rmoveto
            125 hlineto
            22 127 -64 callgsubr
            return
          </CharString>
          <CharString index="128">
            78 21 -1 callgsubr
            return
          </CharString>
          <CharString index="129">
            -33 callsubr
            43 return
          </CharString>
          <CharString index="130">
            41 18 27 25 46 vvcurveto
            59 -46 30 -70 -66 -55 -40 -62 -10 vhcurveto
            -2 -14 rlineto
            76 hlineto
            1 7 rlineto
            31 return
          </CharString>
          <CharString index="131">
            rmoveto
            98 180 22 39 42 83 9 17 rlinecurve
            5 hlineto
            3 -17 13 -83 8 -40 35 -179 rcurveline
            endchar
          </CharString>
          <CharString index="132">
            hlineto
            20 109 rlineto
            return
          </CharString>
          <CharString index="133">
            hstem
            -49 695 vstem
            return
          </CharString>
          <CharString index="134">
            82 463 rlineto
            -99 hlineto
            return
          </CharString>
          <CharString index="135">
            132 26 147 rlineto
            -132 hlineto
            -26 -147 rlineto
            return
          </CharString>
          <CharString index="136">
            -723 -66 callsubr
            return
          </CharString>
          <CharString index="137">
            34 callsubr
            85 132 return
          </CharString>
          <CharString index="138">
            21 8 callsubr
            return
          </CharString>
          <CharString index="139">
            -182 57 -28 -21 97 43 return
          </CharString>
          <CharString index="140">
            hstem
            12 656 vstem
            return
          </CharString>
          <CharString index="141">
            -21 526 -20 return
          </CharString>
          <CharString index="142">
            hstemhm
            -6 126 -56 119 174.5 119.5 253 120 return
          </CharString>
          <CharString index="143">
            hstem
            35 131 402 133 vstem
            return
          </CharString>
          <CharString index="144">
            rlineto
            -34 callgsubr
            return
          </CharString>
          <CharString index="145">
            rlineto
            -29 -5 -17 -16 -29 hhcurveto
            -47 66 callsubr
          </CharString>
          <CharString index="146">
            -118 hlineto
            -70 -12 -47 -31 -66 hhcurveto
            -77 -33 35 73 13 0 14 3 16 hvcurveto
            return
          </CharString>
          <CharString index="147">
            rmoveto
            74 65 44 72 36 -18 24 -29 14 hvcurveto
            return
          </CharString>
          <CharString index="148">
            607 rmoveto
            67 hlineto
            return
          </CharString>
          <CharString index="149">
            rmoveto
            135 hlineto
            82 149 rlineto
            316 hlineto
            30 -149 rlineto
            132 hlineto
            return
          </CharString>
          <CharString index="150">
            98 hstem
            446 121 vstem
            -16 hmoveto
            485 hlineto
            18 101 rlineto
            -313 hlineto
            return
          </CharString>
          <CharString index="151">
            23 -14 callgsubr
            return
          </CharString>
          <CharString index="152">
            190 -12 63 95 64 87 64 return
          </CharString>
          <CharString index="153">
            hstem
            557 132 vstem
            return
          </CharString>
          <CharString index="154">
            -107 -12 97 356 97 return
          </CharString>
          <CharString index="155">
            494 108 return
          </CharString>
          <CharString index="156">
            rlineto
            46 hlineto
            endchar
          </CharString>
          <CharString index="157">
            -376 -230 71 callsubr
            return
          </CharString>
          <CharString index="158">
            69 199 49 40 -20 32 -20 hstemhm
            return
          </CharString>
          <CharString index="159">
            42 callgsubr
            hstem
            12 701 vstem
            return
          </CharString>
          <CharString index="160">
            -311 591 132 hstem
            return
          </CharString>
          <CharString index="161">
            -81 callsubr
            -45 return
          </CharString>
          <CharString index="162">
            hlineto
            hintmask 11011000
            16 88 -61 callgsubr
            hintmask 11101000
            -16 -88 rlineto
            return
          </CharString>
          <CharString index="163">
            -10 callgsubr
            -26 -147 rlineto
            -63 80 callgsubr
            63 hlineto
            return
          </CharString>
          <CharString index="164">
            -274 -159 70 332 40 10 40 332 70 hstemhm
            return
          </CharString>
          <CharString index="165">
            rlineto
            -122 hlineto
            endchar
          </CharString>
          <CharString index="166">
            hlineto
            -2 -3 rlineto
            return
          </CharString>
          <CharString index="167">
            -371 -152 -21 896 -20 hstem
            90 93 vstem
            90 return
          </CharString>
          <CharString index="168">
            578 0 98 -98 109 319 98 51 109 return
          </CharString>
          <CharString index="169">
            vstem
            150 -207 rmoveto
            21 hlineto
            202 189 10 return
          </CharString>
          <CharString index="170">
            -182 98 105 -21 428 98 return
          </CharString>
          <CharString index="171">
            62 134 21 hvcurveto
            -118 hlineto
            return
          </CharString>
          <CharString index="172">
            rmoveto
            472 hlineto
            17 return
          </CharString>
          <CharString index="173">
            60 callgsubr
            -8 20 39 66 callgsubr
          </CharString>
          <CharString index="174">
            159 20 116 rlineto
            return
          </CharString>
          <CharString index="175">
            -33 callsubr
            76 -21 return
          </CharString>
          <CharString index="176">
            hmoveto
            128 hlineto
            return
          </CharString>
          <CharString index="177">
            hmoveto
            -34 callgsubr
            return
          </CharString>
          <CharString index="178">
            -49 callsubr
            65 72 -70 callsubr
            return
          </CharString>
          <CharString index="179">
            -15 -3 -17 hvcurveto
            -57 -324 37 callsubr
            return
          </CharString>
          <CharString index="180">
            hlineto
            43 202 rlineto
            -94 hlineto
            -43 -202 rlineto
            return
          </CharString>
          <CharString index="181">
            -50 -20 -21 -37 -43 vvcurveto
            -53 35 -39 87 vhcurveto
            return
          </CharString>
          <CharString index="182">
            9 29 156 44 248 return
          </CharString>
          <CharString index="183">
            81 -46 81 hstemhm
            return
          </CharString>
          <CharString index="184">
            20 111 rlineto
            return
          </CharString>
          <CharString index="185">
            16 callsubr
            hintmask 00000000
            return
          </CharString>
          <CharString index="186">
            -29 callsubr
            endchar
          </CharString>
          <CharString index="187">
            hstemhm
            22 124 return
          </CharString>
        <CharString name=".notdef">
          -143 0 50 600 50 hstem
          0 50 400 50 vstem
          0 vmoveto
          500 700 -500 hlineto
          250 -305 rmoveto
          -170 255 rlineto
          340 hlineto
          -370 -555 rmoveto
          510 vlineto
          170 -255 rlineto
          230 -255 rmoveto
          -170 255 170 255 rlineto
          -370 -555 rmoveto
          170 255 170 -255 rlineto
          endchar
        </CharString>
        <CharString name="A">
          -70 callgsubr
          26 callsubr
          -49 hmoveto
          -106 callsubr
          endchar
        </CharString>
        <CharString name="AE">
          356 0 109 40 108 39 -41 callsubr
          hstem
          -62 1063 vstem
          -62 hmoveto
          -32 callsubr
        </CharString>
        <CharString name="AEacute">
          356 0 109 40 108 39 -41 callsubr
          50 132 hstem
          -62 1063 vstem
          535 736 -94 callgsubr
          -701 -868 rmoveto
          -32 callsubr
        </CharString>
        <CharString name="Aacute">
          -70 callgsubr
          50 132 26 callsubr
          377 736 -94 callgsubr
          -530 -868 -102 callgsubr
        </CharString>
        <CharString name="Abreve">
          5 callgsubr
          hstem
          283 82 vstem
          428 738 -97 callsubr
          endchar
        </CharString>
        <CharString name="Acircumflex">
          1 callgsubr
          26 callsubr
          262 -74 callsubr
          -440 -868 -102 callgsubr
        </CharString>
        <CharString name="Adieresis">
          -70 callgsubr
          72 110 26 callsubr
          278 -66 callgsubr
          -548 -868 -102 callgsubr
        </CharString>
        <CharString name="Agrave">
          -70 callgsubr
          50 132 26 callsubr
          383 736 -78 callsubr
          -347 -865 -102 callgsubr
        </CharString>
        <CharString name="Amacron">
          -70 callgsubr
          76 82 26 callsubr
          281 762 -59 callgsubr
          -345 -844 -102 callgsubr
        </CharString>
        <CharString name="Aogonek">
          59 -182 68 135 -71 callgsubr
          hstem
          451 103 vstem
          540 -182 rmoveto
          24 24 4 10 28 hvcurveto
          10 54 rlineto
          -27 hlineto
          -33 -12 17 22 29 23 28 23 18 hvcurveto
          46 hlineto
          -147 -21 callsubr
          -161 hlineto
          -387 -686 rlineto
          135 hlineto
          82 149 rlineto
          316 hlineto
          30 -149 rlineto
          -33 -25 -30 -33 -48 vvcurveto
          -57 45 -19 44 vhcurveto
          -312 439 24 callsubr
        </CharString>
        <CharString name="Aring">
          -70 callgsubr
          18 53 93 53 hstemhm
          337 54 94 53 hintmask 00000000
          hintmask 11111110
          425 704 -53 callgsubr
          -479 -757 42 callsubr
          hintmask 11101110
          -147 -21 callsubr
          -161 hlineto
          -110 -429 24 callsubr
        </CharString>
        <CharString name="Aringacute">
          59 21 -21 149 108 434 -20 113 52 25 132 hstemhm
          325 54 95 53 hintmask 00000000
          hintmask 11111110
          395 861 rmoveto
          102 hlineto
          129 -16 callsubr
          -126 hlineto
          -548 -993 42 callsubr
          -145 680 rlineto
          hintmask 11110110
          16 18 10 26 28 vvcurveto
          48 -33 36 -55 -69 -45 -52 -64 -14 3 -14 7 -11 vhcurveto
          83 10 rmoveto
          -25 -14 15 21 31 22 26 32 25 16 -17 -22 -30 -25 -24 -31 hvcurveto
          -190 -434 24 callsubr
        </CharString>
        <CharString name="Atilde">
          -70 callgsubr
          66 116 26 callsubr
          266 752 rmoveto
          67 hlineto
          -46 callsubr
          -96 callgsubr
          -315 -752 -102 callgsubr
        </CharString>
        <CharString name="B">
          59 0 109 189 107 34 callgsubr
          hstemhm
          501 130 -96 134 hintmask 11110000
          12 hmoveto
          372 hlineto
          129 118 63 145 78 -45 51 -60 19 hvcurveto
          4 vlineto
          hintmask 11101000
          79 17 64 68 85 vvcurveto
          104 -83 52 -132 vhcurveto
          -321 hlineto
          79 -281 rmoveto
          30 172 rlineto
          211 hlineto
          47 35 -22 -51 -52 -38 -47 -76 hvcurveto
          -261 -296 rmoveto
          33 189 rlineto
          hintmask 11110000
          212 hlineto
          65 31 -31 -52 -75 -55 -31 -66 hvcurveto
          endchar
        </CharString>
        <CharString name="C">
          45 callgsubr
          36 callsubr
          325 -12 -92 callgsubr
        </CharString>
        <CharString name="CR">
          -366 endchar
        </CharString>
        <CharString name="Cacute">
          45 callgsubr
          38 132 36 callsubr
          386 736 -94 callgsubr
          -165 -880 -92 callgsubr
        </CharString>
        <CharString name="Cacute.loclPLK">
          45 callgsubr
          38 132 36 callsubr
          378 736 -51 callsubr
          -101 -880 -92 callgsubr
        </CharString>
        <CharString name="Ccaron">
          45 callgsubr
          35 135 36 callsubr
          383 733 -96 callsubr
          24 -880 -92 callgsubr
        </CharString>
        <CharString name="Ccedilla">
          78 32 callsubr
          45 -21 600 108 hstemhm
          35 131 165 95 142 133 hintmask 10011111
          696 433 rmoveto
          3 20 2 19 17 vvcurveto
          141 -115 68 -160 -98 -83 -29 -49 -62 vhcurveto
          -100 -82 -48 -137 -147 vvcurveto
          -167 85 -82 152 -15 vhcurveto
          hintmask 10111111
          -23 -67 rlineto
          45 hlineto
          27 10 -6 -13 -23 -20 -6 -28 hvcurveto
          -92 hlineto
          hintmask 01011111
          -9 -49 rlineto
          hintmask 10111111
          -5 29 39 -3 34 hhcurveto
          55 87 14 71 43 -38 18 -47 2 hvcurveto
          8 23 156 7 129 85 30 170 rlinecurve
          -126 hlineto
          -100 -19 -83 -55 -110 hhcurveto
          -108 -52 53 110 29 3 29 10 49 hvcurveto
          137 27 83 87 136 hhcurveto
          87 56 -40 -82 -11 -1 -12 -2 -12 hvcurveto
          endchar
        </CharString>
        <CharString name="Ccircumflex">
          45 callgsubr
          35 135 36 callsubr
          271 -74 callsubr
          -75 -880 -92 callgsubr
        </CharString>
        <CharString name="Cdotaccent">
          45 callgsubr
          53 118 36 callsubr
          380 751 -93 callsubr
          -76 -881 -92 callgsubr
        </CharString>
        <CharString name="D">
          78 0 109 468 30 callgsubr
          12 hmoveto
          -58 callsubr
          endchar
        </CharString>
        <CharString name="Dcaron">
          78 0 109 468 109 47 135 46 callsubr
          347 733 -96 callsubr
          -253 -868 rmoveto
          -58 callsubr
          endchar
        </CharString>
        <CharString name="Dcroat">
          -56 callsubr
        </CharString>
        <CharString name="E">
          -67 callgsubr
          33 callsubr
          12 hmoveto
          -102 callsubr
          endchar
        </CharString>
        <CharString name="Eacute">
          -67 callgsubr
          50 132 33 callsubr
          362 736 -94 callgsubr
          -454 -44 callsubr
        </CharString>
        <CharString name="Ebreve">
          -67 callgsubr
          52 80 hstem
          268 82 vstem
          413 -71 callsubr
          -401 -738 -91 callsubr
        </CharString>
        <CharString name="Ecaron">
          -2 callgsubr
          33 callsubr
          359 733 -96 callsubr
          -265 -44 callsubr
        </CharString>
        <CharString name="Ecircumflex">
          -2 callgsubr
          33 callsubr
          247 733 -84 callsubr
          endchar
        </CharString>
        <CharString name="Edieresis">
          -67 callgsubr
          72 110 33 callsubr
          263 -66 callgsubr
          -472 -44 callsubr
        </CharString>
        <CharString name="Edotaccent">
          -67 callgsubr
          65 118 33 callsubr
          356 751 -93 callsubr
          -365 -869 -91 callsubr
        </CharString>
        <CharString name="Egrave">
          -67 callgsubr
          50 132 33 callsubr
          368 736 -78 callsubr
          -271 -865 -91 callsubr
        </CharString>
        <CharString name="Emacron">
          -67 callgsubr
          76 82 33 callsubr
          266 762 -59 callgsubr
          -269 -844 -91 callsubr
        </CharString>
        <CharString name="Eng">
          78 -182 97 106 52 callsubr
          439 -182 rmoveto
          98 35 68 66 12 hvcurveto
          129 734 rlineto
          -123 hlineto
          -73 -417 -3 -14 -5 -38 -1 -7 rlinecurve
          -5 -1 -2 6 -16 34 -9 17 rlinecurve
          -221 420 rlineto
          -122 hlineto
          -121 -686 rlineto
          123 hlineto
          74 419 rlineto
          3 20 4 36 8 vvcurveto
          5 hlineto
          4 -6 11 -29 14 -24 220 -421 rcurveline
          -8 -43 38 callsubr
        </CharString>
        <CharString name="Eogonek">
          23 -182 68 114 -65 callgsubr
          hstem
          362 102 vstem
          453 7 callgsubr
          9 54 rlineto
          -26 hlineto
          -28 -15 14 18 32 46 34 43 16 hvcurveto
          20 109 rlineto
          -414 hlineto
          33 187 rlineto
          364 hlineto
          19 109 rlineto
          -364 hlineto
          30 172 rlineto
          408 hlineto
          19 109 rlineto
          -535 hlineto
          -121 -686 rlineto
          434 hlineto
          -49 -25 -35 -35 -52 vvcurveto
          -53 48 -17 43 vhcurveto
          endchar
        </CharString>
        <CharString name="Eth">
          -56 callsubr
        </CharString>
        <CharString name="Euro">
          -88 -12 98 150 76 70 75 143 98 hstem
          -6 587 vstem
          349 -12 rmoveto
          60 43 13 2 9 hvcurveto
          17 97 rlineto
          -2 -9 -42 -12 -46 hhcurveto
          -66 -108 27 123 -14 hvcurveto
          237 hlineto
          13 76 rlineto
          -250 hlineto
          2 23 4 26 6 21 rrcurveto
          251 hlineto
          13 75 rlineto
          -235 hlineto
          101 50 98 42 100 hhcurveto
          40 35 -12 -2 7 hvcurveto
          17 97 rlineto
          2 -10 -41 13 -64 hhcurveto
          -137 -160 -60 -181 -69 hvcurveto
          -68 hlineto
          -13 -75 rlineto
          59 hlineto
          -4 -21 -4 -27 -2 -22 rrcurveto
          -62 hlineto
          -12 -76 rlineto
          73 hlineto
          -184 11 143 -64 128 hhcurveto
          endchar
        </CharString>
        <CharString name="F">
          -33 21 -21 282 109 186 109 hstem
          12 614 69 callgsubr
          50 282 rlineto
          328 hlineto
          19 109 rlineto
          -329 hlineto
          33 186 rlineto
          366 hlineto
          19 109 rlineto
          -493 hlineto
          endchar
        </CharString>
        <CharString name="G">
          -37 callsubr
          8 callgsubr
          hintmask 10111100
          734 452 rmoveto
          3 16 1 14 15 vvcurveto
          136 -129 65 -165 -118 -95 -37 -65 -68 vhcurveto
          -85 -80 -43 -123 -137 vvcurveto
          -182 104 -86 184 101 73 31 60 67 vhcurveto
          hintmask 01111100
          -79 90 vlineto
          65 367 rlineto
          -348 hlineto
          -19 -106 rlineto
          220 -1 hlineto
          hintmask 10111100
          -95 -13 -97 -69 -129 hhcurveto
          -110 -56 51 113 29 3 30 9 48 hvcurveto
          141 28 92 82 149 hhcurveto
          88 68 -39 -76 -7 0 -8 -2 -8 hvcurveto
          endchar
        </CharString>
        <CharString name="G_tilde.loclGUA">
          -37 callsubr
          54 116 8 callgsubr
          hintmask 10111110
          392 787 rmoveto
          -96 callgsubr
          67 hlineto
          -7 callgsubr
          342 -335 -91 callgsubr
        </CharString>
        <CharString name="Gbreve">
          -37 callsubr
          40 80 hstemhm
          35 132 136 82 219 134 hintmask 10111111
          448 -71 callsubr
          286 -286 rmoveto
          3 16 1 14 15 vvcurveto
          136 -129 65 -165 -118 -95 -37 -65 -68 vhcurveto
          -85 -80 -43 -123 -137 vvcurveto
          -182 104 -86 184 101 73 31 60 67 vhcurveto
          hintmask 01111111
          -79 90 vlineto
          65 367 rlineto
          -348 hlineto
          -19 -106 rlineto
          220 -1 hlineto
          hintmask 10111111
          -95 -13 -97 -69 -129 hhcurveto
          -110 -56 51 113 29 3 30 9 48 hvcurveto
          141 28 92 82 149 hhcurveto
          88 68 -39 -76 -7 0 -8 -2 -8 hvcurveto
          endchar
        </CharString>
        <CharString name="Gcaron">
          -37 callsubr
          35 135 8 callgsubr
          hintmask 10111110
          502 733 rmoveto
          129 135 rlineto
          -110 hlineto
          -65 -72 -45 72 rlineto
          -99 hlineto
          82 -135 rlineto
          340 -281 -91 callgsubr
        </CharString>
        <CharString name="Gcircumflex">
          -37 callsubr
          35 135 8 callgsubr
          hintmask 10111110
          458 805 rmoveto
          -99 callgsubr
          -129 -135 rlineto
          111 hlineto
          341 -281 -91 callgsubr
        </CharString>
        <CharString name="Gcommaaccent">
          134 -142 96 34 108 -75 -21 261 106 223 108 8 callgsubr
          hintmask 11011110
          734 452 rmoveto
          3 16 1 14 15 vvcurveto
          136 -129 65 -165 -118 -95 -37 -65 -68 vhcurveto
          -85 -80 -43 -123 -137 vvcurveto
          -182 104 -86 184 101 73 31 60 67 vhcurveto
          hintmask 10111110
          -79 90 vlineto
          65 367 rlineto
          -348 hlineto
          -19 -106 rlineto
          220 -1 hlineto
          hintmask 11011110
          -95 -13 -97 -69 -129 hhcurveto
          -110 -56 51 113 29 3 30 9 48 hvcurveto
          141 28 92 82 149 hhcurveto
          88 68 -39 -76 -7 0 -8 -2 -8 hvcurveto
          -344 -594 rmoveto
          46 hlineto
          -61 -88 rlineto
          64 hlineto
          74 98 15 86 -19 callgsubr
          endchar
        </CharString>
        <CharString name="Gdotaccent">
          -37 callsubr
          53 118 8 callgsubr
          hintmask 10111110
          530 869 rmoveto
          -118 hlineto
          -21 -118 rlineto
          118 hlineto
          225 -299 -91 callgsubr
        </CharString>
        <CharString name="H">
          78 21 -19 callsubr
          endchar
        </CharString>
        <CharString name="Hbar">
          78 21 -21 296 110 108 84 -84 172 hstemhm
          12 748 hintmask 11011000
          12 hmoveto
          -10 callsubr
          90 514 rlineto
          64 hlineto
          hintmask 11101000
          14 84 rlineto
          -63 55 callsubr
          -324 55 callsubr
          -63 hlineto
          hintmask 11011000
          -15 -84 rlineto
          64 hlineto
          108 -108 rmoveto
          19 108 rlineto
          325 hlineto
          -19 -108 rlineto
          endchar
        </CharString>
        <CharString name="Hcircumflex">
          78 21 -21 296 110 280 -20 67 135 hstem
          12 701 vstem
          265 -74 callsubr
          -382 -868 rmoveto
          -4 callgsubr
          endchar
        </CharString>
        <CharString name="I">
          3 callgsubr
          hstem
          17 248 vstem
          63 callgsubr
          endchar
        </CharString>
        <CharString name="IJ">
          171 -12 108 -75 42 callgsubr
          hstemhm
          274 128 hintmask 00000000
          hintmask 01110000
          63 callgsubr
          hintmask 10110000
          343 -698 -79 callsubr
        </CharString>
        <CharString name="Iacute">
          -366 -2 callsubr
          17 372 vstem
          159 736 -94 callgsubr
          -246 -868 rmoveto
          -62 callgsubr
          endchar
        </CharString>
        <CharString name="Iacute_J.loclNLD">
          171 -12 108 -75 42 callgsubr
          70 132 hstemhm
          274 128 hintmask 10111000
          159 736 -94 callgsubr
          439 -132 -94 callgsubr
          hintmask 01111000
          -789 -868 rmoveto
          -62 callgsubr
          hintmask 10111000
          343 -698 -79 callsubr
        </CharString>
        <CharString name="Ibreve">
          3 callgsubr
          72 80 hstem
          65 82 vstem
          210 -71 callsubr
          -193 -738 rmoveto
          -62 callgsubr
          endchar
        </CharString>
        <CharString name="Icircumflex">
          3 callgsubr
          67 135 hstem
          17 346 vstem
          44 -74 callsubr
          -156 -868 rmoveto
          -62 callgsubr
          endchar
        </CharString>
        <CharString name="Idieresis">
          3 callgsubr
          92 110 hstem
          17 372 vstem
          60 -66 callgsubr
          -264 -868 rmoveto
          -62 callgsubr
          endchar
        </CharString>
        <CharString name="Idotaccent">
          3 callgsubr
          85 118 hstem
          17 275 vstem
          153 751 -93 callsubr
          -157 -869 rmoveto
          -62 callgsubr
          endchar
        </CharString>
        <CharString name="Igrave">
          -366 -2 callsubr
          17 248 vstem
          165 736 -78 callsubr
          -63 -865 rmoveto
          -62 callgsubr
          endchar
        </CharString>
        <CharString name="Imacron">
          3 callgsubr
          96 82 hstem
          17 366 vstem
          63 762 -59 callgsubr
          -61 -844 rmoveto
          -62 callgsubr
          endchar
        </CharString>
        <CharString name="Iogonek">
          -366 -190 68 143 42 callgsubr
          hstem
          -31 102 vstem
          118 hmoveto
          26 -52 callgsubr
          -121 -686 rlineto
          21 hlineto
          -34 -26 -35 -35 -53 -38 callsubr
          endchar
        </CharString>
        <CharString name="Itilde">
          3 callgsubr
          86 116 hstem
          17 383 vstem
          48 752 rmoveto
          67 hlineto
          -46 callsubr
          -96 callgsubr
          -31 -752 rmoveto
          -62 callgsubr
          endchar
        </CharString>
        <CharString name="J">
          -107 -46 callgsubr
          hstem
          -4 128 vstem
          203 -12 -79 callsubr
        </CharString>
        <CharString name="Jcircumflex">
          -107 -46 callgsubr
          67 135 hstem
          -4 128 vstem
          309 -74 callsubr
          -235 -880 -79 callsubr
        </CharString>
        <CharString name="K">
          59 21 -15 callgsubr
          endchar
        </CharString>
        <CharString name="Kcommaaccent">
          59 -142 96 67 -15 callgsubr
          73 -916 rmoveto
          64 hlineto
          -67 callsubr
        </CharString>
        <CharString name="L">
          0 111 575 -20 hstem
          12 517 vstem
          -31 callgsubr
          endchar
        </CharString>
        <CharString name="Lacute">
          0 111 575 -20 70 132 hstem
          12 517 vstem
          154 736 -94 callgsubr
          -246 -868 rmoveto
          -25 callsubr
          endchar
        </CharString>
        <CharString name="Lcaron">
          0 111 460 115 hstem
          12 517 vstem
          -31 callgsubr
          207 -227 rmoveto
          63 25 callgsubr
          46 hlineto
          endchar
        </CharString>
        <CharString name="Lcommaaccent">
          -142 96 46 111 575 -20 hstem
          12 517 vstem
          -31 callgsubr
          28 -916 rmoveto
          64 hlineto
          -67 callsubr
        </CharString>
        <CharString name="Ldot">
          0 111 288 127 160 -20 hstem
          12 517 vstem
          -31 callgsubr
          198 -287 rmoveto
          124 13 callsubr
          -124 hlineto
          endchar
        </CharString>
        <CharString name="Lslash">
          0 111 420 -20 175 -20 hstem
          -14 543 vstem
          18 hmoveto
          491 hlineto
          77 callsubr
          -364 hlineto
          40 226 168 99 17 95 -168 -99 45 254 -61 callgsubr
          -60 -339 -76 -45 -17 -95 76 46 rlineto
          endchar
        </CharString>
        <CharString name="M">
          189 0 140 -119 -21 559 127 hstemhm
          12 812 hintmask 01110000
          12 hmoveto
          122 hlineto
          78 443 rlineto
          5 27 11 89 0 vvcurveto
          5 hlineto
          2 -18 2 -33 2 -26 53 -482 rcurveline
          122 hlineto
          225 482 13 27 13 32 7 18 rlinecurve
          6 hlineto
          0 -20 -90 -4 -26 vhcurveto
          -79 -443 rlineto
          128 -31 callsubr
          -198 hlineto
          -193 -409 rlineto
          hintmask 10110000
          -18 -38 -33 -99 0 vvcurveto
          -5 hlineto
          0 -1 93 -5 44 vhcurveto
          -49 409 rlineto
          -189 hlineto
          endchar
        </CharString>
        <CharString name="N">
          78 21 52 callsubr
          -28 callgsubr
          endchar
        </CharString>
        <CharString name="NULL">
          -644 endchar
        </CharString>
        <CharString name="Nacute">
          78 -2 callsubr
          12 701 vstem
          396 736 -94 callgsubr
          -488 -868 rmoveto
          -94 callsubr
          endchar
        </CharString>
        <CharString name="Nacute.loclPLK">
          78 -2 callsubr
          12 701 vstem
          388 736 -51 callsubr
          -424 -868 rmoveto
          -94 callsubr
          endchar
        </CharString>
        <CharString name="Ncaron">
          78 -20 callgsubr
          67 135 hstem
          12 701 vstem
          393 733 -96 callsubr
          -299 -868 rmoveto
          -94 callsubr
          endchar
        </CharString>
        <CharString name="Ncommaaccent">
          78 -142 96 67 52 callsubr
          -28 callgsubr
          82 -916 rmoveto
          64 hlineto
          -67 callsubr
        </CharString>
        <CharString name="Ntilde">
          78 -20 callgsubr
          86 116 hstem
          12 701 vstem
          285 752 rmoveto
          67 hlineto
          -46 callsubr
          -96 callgsubr
          -273 -752 rmoveto
          -94 callsubr
          endchar
        </CharString>
        <CharString name="O">
          -55 callsubr
          hstem
          -54 callsubr
          vstem
          342 -11 -107 callgsubr
          endchar
        </CharString>
        <CharString name="OE">
          356 -12 108 -96 108 189 108 173 108 -96 108 hstemhm
          33 132 hintmask 00000000
          hintmask 10110100
          263 -12 rmoveto
          69 61 24 49 53 hvcurveto
          hintmask 01110100
          -10 -61 rlineto
          449 hlineto
          19 108 rlineto
          -322 hlineto
          34 189 rlineto
          267 hlineto
          19 108 rlineto
          -267 hlineto
          30 173 rlineto
          315 hlineto
          19 108 rlineto
          -442 hlineto
          hintmask 01101100
          -11 -62 rlineto
          50 -41 -59 24 -81 hhcurveto
          -163 -119 -121 -234 -39 hvcurveto
          -7 -41 -4 -37 -34 vvcurveto
          hintmask 10110100
          -161 84 -82 146 vhcurveto
          31 108 rmoveto
          -87 -42 46 101 29 4 33 7 38 hvcurveto
          hintmask 01101100
          170 30 64 77 113 hhcurveto
          77 46 -41 -109 -27 -3 -33 -6 -37 hvcurveto
          hintmask 10110100
          -181 -33 -73 -66 -97 hhcurveto
          endchar
        </CharString>
        <CharString name="Oacute">
          -41 callgsubr
          387 736 -94 callgsubr
          -149 -879 -107 callgsubr
          endchar
        </CharString>
        <CharString name="Oacute.loclPLK">
          -41 callgsubr
          379 736 -51 callsubr
          -85 -879 -107 callgsubr
          endchar
        </CharString>
        <CharString name="Obreve">
          -55 callsubr
          40 80 hstem
          35 131 127 82 238 132 vstem
          438 -71 callsubr
          -96 -749 -107 callgsubr
          endchar
        </CharString>
        <CharString name="Ocircumflex">
          14 callgsubr
          hstem
          -54 callsubr
          vstem
          272 -74 callsubr
          -59 -879 -107 callgsubr
          endchar
        </CharString>
        <CharString name="Odieresis">
          -55 callsubr
          60 110 hstem
          -54 callsubr
          vstem
          288 -66 callgsubr
          -167 -879 -107 callgsubr
          endchar
        </CharString>
        <CharString name="Ograve">
          -41 callgsubr
          393 736 -78 callsubr
          34 -876 -107 callgsubr
          endchar
        </CharString>
        <CharString name="Ohorn">
          -55 callsubr
          3 127 78 callsubr
          hintmask 10111000
          733 828 -56 callgsubr
          hintmask 11011000
          -83 callgsubr
          hintmask 10111000
          -68 callgsubr
          hintmask 11011000
          154 27 88 85 146 hhcurveto
          115 61 -62 -104 hvcurveto
          hintmask 10111000
          -23 -2 -22 -8 -43 vhcurveto
          endchar
        </CharString>
        <CharString name="Ohungarumlaut">
          -41 callgsubr
          306 736 rmoveto
          -52 callsubr
          -226 -879 -107 callgsubr
          endchar
        </CharString>
        <CharString name="Omacron">
          -55 callsubr
          64 82 hstem
          -54 callsubr
          vstem
          291 762 -59 callgsubr
          36 -855 -107 callgsubr
          endchar
        </CharString>
        <CharString name="Oslash">
          134 -14 callgsubr
          37 -20 hstem
          35 132 446 132 vstem
          -12 -49 4 callgsubr
          -51 callgsubr
        </CharString>
        <CharString name="Oslashacute">
          134 -14 callgsubr
          37 -20 21 132 hstemhm
          35 132 446 132 hintmask 00000000
          hintmask 11011100
          424 736 -94 callgsubr
          -540 -917 4 callgsubr
          hintmask 11101100
          -51 callgsubr
        </CharString>
        <CharString name="Otilde">
          -55 callsubr
          54 116 hstem
          -54 callsubr
          vstem
          276 752 rmoveto
          67 hlineto
          -46 callsubr
          -96 callgsubr
          66 -763 -107 callgsubr
          endchar
        </CharString>
        <CharString name="P">
          23 21 -21 245 109 223 109 hstem
          522 131 69 callgsubr
          43 245 72 callgsubr
          116 -67 71 -166 hvcurveto
          -287 hlineto
          69 -332 rmoveto
          39 223 rlineto
          179 hlineto
          71 31 -34 -58 -85 -60 -46 -81 hvcurveto
          endchar
        </CharString>
        <CharString name="Q">
          134 -14 callgsubr
          hstem
          35 132 446 132 vstem
          470 -130 rmoveto
          156 hlineto
          -127 146 rlineto
          157 62 89 160 193 vvcurveto
          180 -115 87 -195 -105 -88 -33 -58 -65 vhcurveto
          -93 -80 -49 -127 -146 vvcurveto
          -180 114 -86 194 8 11 1 1 6 vhcurveto
          -32 106 rmoveto
          -110 -59 56 113 27 3 27 9 47 hvcurveto
          140 29 94 84 140 hhcurveto
          111 60 -57 -112 -30 -4 -29 -10 -47 hvcurveto
          -138 -30 -93 -81 -140 hhcurveto
          endchar
        </CharString>
        <CharString name="R">
          78 21 -39 callsubr
          endchar
        </CharString>
        <CharString name="Racute">
          21 callsubr
          50 132 47 callgsubr
          350 736 -94 callgsubr
          -442 -868 rmoveto
          -87 callsubr
          endchar
        </CharString>
        <CharString name="Rcaron">
          21 callsubr
          47 135 47 callgsubr
          347 733 -96 callsubr
          -253 -868 rmoveto
          -87 callsubr
          endchar
        </CharString>
        <CharString name="Rcommaaccent">
          78 -142 96 67 -39 callsubr
          -214 -603 rmoveto
          64 hlineto
          -67 callsubr
        </CharString>
        <CharString name="S">
          44 callsubr
          -36 callgsubr
          hintmask 00000000
          hintmask 11101000
          303 -12 rmoveto
          147 150 62 169 hvcurveto
          hintmask 11011000
          216 -379 -52 122 vvcurveto
          55 64 30 95 vhcurveto
          hintmask 11010100
          78 49 -29 -49 -4 0 -7 -3 -14 hvcurveto
          126 hlineto
          4 23 1 15 12 vvcurveto
          112 -113 49 -149 -152 -132 -68 -143 vhcurveto
          hintmask 11011000
          -216 377 60 -136 vvcurveto
          -59 -55 -40 -119 vhcurveto
          hintmask 11101000
          -90 -54 32 56 12 4 16 2 8 hvcurveto
          -129 hlineto
          -4 -15 -4 -24 -18 vvcurveto
          -120 126 -55 160 vhcurveto
          endchar
        </CharString>
        <CharString name="Sacute">
          44 callsubr
          38 132 -36 callgsubr
          hintmask 11101100
          359 736 -94 callgsubr
          hintmask 11110100
          -160 -880 -100 callsubr
          endchar
        </CharString>
        <CharString name="Sacute.loclPLK">
          44 callsubr
          38 132 -36 callgsubr
          hintmask 11101100
          351 736 -51 callsubr
          hintmask 11110100
          -96 -880 -100 callsubr
          endchar
        </CharString>
        <CharString name="Scaron">
          44 callsubr
          35 135 -36 callgsubr
          hintmask 11101100
          356 733 -96 callsubr
          hintmask 11110100
          29 -880 -100 callsubr
          endchar
        </CharString>
        <CharString name="Scedilla">
          23 32 callsubr
          24 106 48 callsubr
          hstemhm
          17 131 -59 132 96 96 53 134 -93 128 hintmask 1001101110000000
          271 -182 rmoveto
          55 87 14 71 hvcurveto
          hintmask 1011101110000000
          43 -38 18 -47 2 vhcurveto
          8 24 rlineto
          135 8 129 65 156 216 -379 -52 122 vvcurveto
          55 64 30 95 vhcurveto
          hintmask 1001101101000000
          78 49 -29 -49 -4 0 -7 -3 -14 hvcurveto
          126 hlineto
          4 23 1 15 12 vvcurveto
          112 -113 49 -149 -152 -132 -68 -143 vhcurveto
          hintmask 1001101110000000
          -216 377 60 -136 vvcurveto
          -59 -55 -40 -119 vhcurveto
          hintmask 1001110110000000
          -90 -54 32 56 12 4 16 2 8 hvcurveto
          -129 hlineto
          -4 -15 -4 -24 -18 vvcurveto
          -109 103 -55 139 -9 vhcurveto
          hintmask 1011101110000000
          -23 -67 -24 callsubr
          hintmask 0101101110000000
          -9 -49 rlineto
          hintmask 1001101110000000
          -5 29 39 -3 35 hhcurveto
          endchar
        </CharString>
        <CharString name="Scircumflex">
          44 callsubr
          35 135 -36 callgsubr
          hintmask 11101100
          244 -74 callsubr
          hintmask 11110100
          -70 -880 -100 callsubr
          endchar
        </CharString>
        <CharString name="Scommaaccent">
          23 -142 96 34 -18 callgsubr
          -36 callgsubr
          hintmask 00000000
          hintmask 11110100
          303 -12 -100 callsubr
          -115 -218 rmoveto
          64 hlineto
          hintmask 11101100
          -67 callsubr
        </CharString>
        <CharString name="T">
          -33 21 -34 callsubr
          endchar
        </CharString>
        <CharString name="Tbar">
          -33 21 -21 362 84 130 110 hstem
          64 588 vstem
          183 69 callsubr
          64 362 rlineto
          94 hlineto
          15 84 rlineto
          -94 hlineto
          22 130 -28 callsubr
          -23 -130 rlineto
          -95 hlineto
          -15 -84 rlineto
          95 hlineto
          endchar
        </CharString>
        <CharString name="Tcaron">
          -33 21 -21 576 110 47 135 hstem
          64 588 vstem
          318 733 -96 callsubr
          -53 -868 rmoveto
          -8 callsubr
          endchar
        </CharString>
        <CharString name="Thorn">
          23 21 -21 134 109 223 109 -109 220 hstemhm
          502 131 hintmask 11011000
          41 callgsubr
          23 134 72 callgsubr
          hvcurveto
          hintmask 11101000
          115 -67 72 -166 vhcurveto
          -159 hlineto
          hintmask 11011000
          20 111 -61 callgsubr
          49 -443 rmoveto
          40 223 rlineto
          178 hlineto
          71 31 -34 -59 -84 -60 -46 -81 hvcurveto
          endchar
        </CharString>
        <CharString name="U">
          -50 callgsubr
          -23 callsubr
          322 -12 -105 callsubr
          endchar
        </CharString>
        <CharString name="Uacute">
          -3 callgsubr
          390 736 -94 callgsubr
          -172 -880 -105 callsubr
          endchar
        </CharString>
        <CharString name="Ubreve">
          -50 callgsubr
          72 80 hstem
          56 128 112 82 vstem
          441 -71 callsubr
          -119 -750 -105 callsubr
          endchar
        </CharString>
        <CharString name="Ucircumflex">
          -50 callgsubr
          67 135 -23 callsubr
          275 -74 callsubr
          -82 -880 -105 callsubr
          endchar
        </CharString>
        <CharString name="Udieresis">
          -50 callgsubr
          92 110 -23 callsubr
          291 -66 callgsubr
          -190 -880 -105 callsubr
          endchar
        </CharString>
        <CharString name="Ugrave">
          -3 callgsubr
          396 736 -78 callsubr
          11 -877 -105 callsubr
          endchar
        </CharString>
        <CharString name="Uhorn">
          -50 callgsubr
          75 127 -23 callsubr
          -87 callgsubr
          endchar
        </CharString>
        <CharString name="Uhungarumlaut">
          -3 callgsubr
          309 736 rmoveto
          -52 callsubr
          -249 -880 -105 callsubr
          endchar
        </CharString>
        <CharString name="Umacron">
          -50 callgsubr
          96 82 -23 callsubr
          294 762 -59 callgsubr
          13 -856 -105 callsubr
          endchar
        </CharString>
        <CharString name="Uogonek">
          78 -182 68 102 108 590 -20 hstem
          56 128 81 102 vstem
          355 7 callgsubr
          10 54 rlineto
          -27 hlineto
          -31 -11 17 22 27 17 26 17 18 hvcurveto
          130 22 82 85 27 151 76 432 rcurveline
          -128 -103 callgsubr
          -137 92 -70 162 -4 vhcurveto
          -24 -23 -21 -30 -41 vvcurveto
          -57 46 -19 44 vhcurveto
          endchar
        </CharString>
        <CharString name="Uring">
          -50 callgsubr
          38 53 93 53 hstemhm
          56 128 166 54 94 53 hintmask 00000000
          hintmask 11111110
          438 704 -53 callgsubr
          -121 -769 rmoveto
          178 108 87 179 32 hvcurveto
          hintmask 11011110
          76 432 rlineto
          -128 -103 callgsubr
          hintmask 11111110
          -139 96 -72 170 vhcurveto
          endchar
        </CharString>
        <CharString name="Utilde">
          -50 callgsubr
          86 116 -23 callsubr
          279 752 rmoveto
          67 hlineto
          -46 callsubr
          -96 callgsubr
          43 -764 -105 callsubr
          endchar
        </CharString>
        <CharString name="V">
          23 0 143 -122 42 callgsubr
          hstemhm
          73 650 hintmask 01110000
          202 hmoveto
          149 hlineto
          372 -21 callsubr
          -137 hlineto
          -222 -423 rlineto
          hintmask 10110000
          -17 -31 -39 -80 -5 -9 rrcurveto
          -5 hlineto
          -2 10 -12 80 -6 32 -74 421 rcurveline
          -131 hlineto
          endchar
        </CharString>
        <CharString name="W">
          2 callgsubr
          hstemhm
          68 932 hintmask 10110000
          129 hmoveto
          152 hlineto
          190 452 rlineto
          hintmask 11010000
          -86 callsubr
        </CharString>
        <CharString name="Wacute">
          2 callgsubr
          70 132 hstemhm
          68 932 hintmask 10111000
          501 736 -94 callgsubr
          -476 -868 rmoveto
          152 hlineto
          190 452 rlineto
          hintmask 11011000
          -86 callsubr
        </CharString>
        <CharString name="Wcircumflex">
          2 callgsubr
          67 135 hstemhm
          68 932 hintmask 10111000
          386 -74 callsubr
          -386 -868 rmoveto
          152 hlineto
          190 452 rlineto
          hintmask 11011000
          -86 callsubr
        </CharString>
        <CharString name="Wdieresis">
          2 callgsubr
          92 110 hstemhm
          68 932 hintmask 10111000
          402 -66 callgsubr
          -494 -868 rmoveto
          152 hlineto
          190 452 rlineto
          hintmask 11011000
          -86 callsubr
        </CharString>
        <CharString name="Wgrave">
          2 callgsubr
          70 132 hstemhm
          68 932 hintmask 10111000
          507 736 -78 callsubr
          -293 -865 rmoveto
          152 hlineto
          190 452 rlineto
          hintmask 11011000
          -86 callsubr
        </CharString>
        <CharString name="X">
          54 callgsubr
          hstem
          -58 759 vstem
          -58 hmoveto
          156 hlineto
          221 255 rlineto
          6 hlineto
          134 -255 rlineto
          145 hlineto
          -194 355 291 331 rlineto
          -156 hlineto
          -193 -224 rlineto
          -5 hlineto
          -118 224 rlineto
          -145 hlineto
          177 -322 rlineto
          endchar
        </CharString>
        <CharString name="Y">
          54 callgsubr
          hstem
          67 656 vstem
          211 hmoveto
          -80 callsubr
          endchar
        </CharString>
        <CharString name="Y.loclGUA">
          -12 callsubr
          hstemhm
          37 131 -86 130 hintmask 00000000
          hintmask 11110000
          277 -12 rmoveto
          164 109 84 178 30 hvcurveto
          39 220 39 216 -61 callgsubr
          -34 -189 rlineto
          -123 -21 -68 -65 -94 hhcurveto
          hintmask 11101000
          -65 -36 31 58 10 1 11 3 11 hvcurveto
          45 256 -61 callgsubr
          -45 -252 rlineto
          -4 -23 -2 -22 -20 vvcurveto
          -110 61 -58 121 79 64 25 59 46 vhcurveto
          6 hlineto
          -9 -51 rlineto
          -93 -17 -60 -45 -91 hhcurveto
          hintmask 11110000
          -81 -33 23 49 hvcurveto
          -131 -9 hlineto
          -116 92 -55 148 vhcurveto
          endchar
        </CharString>
        <CharString name="Yacute">
          23 -2 callsubr
          67 656 vstem
          362 736 -94 callgsubr
          -255 -868 rmoveto
          -80 callsubr
          endchar
        </CharString>
        <CharString name="Yacute.loclGUA">
          -12 callsubr
          70 132 6 callsubr
          369 736 -94 callgsubr
          hintmask 11111000
          -196 -880 -98 callsubr
        </CharString>
        <CharString name="Ycircumflex">
          54 callgsubr
          67 135 hstem
          67 656 vstem
          247 -74 callsubr
          -165 -868 rmoveto
          -80 callsubr
          endchar
        </CharString>
        <CharString name="Ycircumflex.loclGUA">
          -12 callsubr
          67 135 6 callsubr
          254 -74 callsubr
          hintmask 11111000
          -106 -880 -98 callsubr
        </CharString>
        <CharString name="Ydieresis">
          54 callgsubr
          92 110 hstem
          67 656 vstem
          263 -66 callgsubr
          -273 -868 rmoveto
          -80 callsubr
          endchar
        </CharString>
        <CharString name="Ydieresis.loclGUA">
          -12 callsubr
          92 110 6 callsubr
          270 -66 callgsubr
          hintmask 11111000
          -214 -880 -98 callsubr
        </CharString>
        <CharString name="Ygrave">
          23 -2 callsubr
          67 656 vstem
          368 736 -78 callsubr
          -72 -865 rmoveto
          -80 callsubr
          endchar
        </CharString>
        <CharString name="Ygrave.loclGUA">
          -12 callsubr
          70 132 6 callsubr
          375 736 -78 callsubr
          hintmask 11111000
          -13 -877 -98 callsubr
        </CharString>
        <CharString name="Z">
          -33 0 109 468 109 hstem
          -38 679 vstem
          -38 hmoveto
          -77 callgsubr
          endchar
        </CharString>
        <CharString name="Zacute">
          49 callgsubr
          321 736 -94 callgsubr
          -463 -868 rmoveto
          -77 callgsubr
          endchar
        </CharString>
        <CharString name="Zacute.loclPLK">
          49 callgsubr
          313 736 -51 callsubr
          -399 -868 rmoveto
          -77 callgsubr
          endchar
        </CharString>
        <CharString name="Zcaron">
          -33 0 109 468 109 47 135 hstem
          -38 679 vstem
          318 733 -96 callsubr
          -274 -868 rmoveto
          -77 callgsubr
          endchar
        </CharString>
        <CharString name="Zdotaccent">
          -33 0 109 468 109 65 118 hstem
          -38 679 vstem
          315 751 -93 callsubr
          -374 -869 rmoveto
          -77 callgsubr
          endchar
        </CharString>
        <CharString name="a">
          -72 callsubr
          28 callgsubr
          hintmask 00000000
          hintmask 10011000
          469 113 -75 callgsubr
          hintmask 01101000
          -104 callgsubr
          hintmask 10101000
          -35 callsubr
          hintmask 10011000
          -27 callgsubr
          hintmask 01101000
          -97 callgsubr
          endchar
        </CharString>
        <CharString name="aacute">
          -72 callsubr
          85 132 67 callgsubr
          483 720 -29 callgsubr
          hintmask 10011100
          115 -478 -101 callsubr
        </CharString>
        <CharString name="abreve">
          -72 callsubr
          87 65 callgsubr
          18 125 16 82 hintmask 00000000
          hintmask 01100111
          304 593 -83 callsubr
          hintmask 01101011
          -47 callsubr
          hintmask 01100111
          -89 callgsubr
          hintmask 10010110
          -3 callsubr
          hintmask 01100110
          -104 callgsubr
          hintmask 10100110
          -35 callsubr
          hintmask 10010110
          -27 callgsubr
          hintmask 01100110
          -97 callgsubr
          endchar
        </CharString>
        <CharString name="acircumflex">
          -72 callsubr
          82 135 -63 63 28 callgsubr
          hintmask 00000000
          hintmask 01100110
          314 660 rmoveto
          hintmask 10011010
          -30 callsubr
          hintmask 01101010
          -104 callgsubr
          hintmask 10101010
          -35 callsubr
          hintmask 10011010
          -27 callgsubr
          hintmask 01101010
          -97 callgsubr
          endchar
        </CharString>
        <CharString name="acute">
          53 callsubr
          60 230 vstem
          60 591 -94 callgsubr
          endchar
        </CharString>
        <CharString name="acute.loclPLK">
          53 callsubr
          154 163 vstem
          154 591 -51 callsubr
          endchar
        </CharString>
        <CharString name="adieresis">
          -72 callsubr
          107 110 67 callgsubr
          280 723 rmoveto
          -107 hlineto
          -19 -110 rlineto
          107 hlineto
          222 110 rmoveto
          -42 callgsubr
          -20 -110 rlineto
          108 hlineto
          hintmask 10011100
          6 -500 -101 callsubr
        </CharString>
        <CharString name="ae">
          245 -42 callsubr
          35 callsubr
          hintmask 11110110
          184 -12 -32 callgsubr
          hintmask 11101110
          11 callgsubr
          hintmask 11110110
          -25 callgsubr
        </CharString>
        <CharString name="aeacute">
          245 -42 callsubr
          53 132 35 callsubr
          hintmask 11111011
          451 591 -94 callgsubr
          -371 -735 -32 callgsubr
          hintmask 11110111
          11 callgsubr
          hintmask 11111011
          -25 callgsubr
        </CharString>
        <CharString name="agrave">
          -72 callsubr
          85 132 67 callgsubr
          350 591 -24 callgsubr
          hintmask 10011100
          210 -478 -101 callsubr
        </CharString>
        <CharString name="amacron">
          -72 callsubr
          111 82 67 callgsubr
          477 699 rmoveto
          -305 hlineto
          -15 -82 rlineto
          305 hlineto
          hintmask 10011100
          7 -504 -101 callsubr
        </CharString>
        <CharString name="ampersand">
          59 -12 99 212 98 202 99 hstemhm
          23 127 -52 120 287 124 hintmask 00000000
          hintmask 11110100
          281 -12 rmoveto
          168 98 81 132 24 hvcurveto
          18 98 rlineto
          92 hlineto
          16 98 rlineto
          -211 hlineto
          -35 -199 rlineto
          -72 -13 -58 -39 -103 hhcurveto
          -80 -47 27 61 101 85 23 74 hvcurveto
          63 hlineto
          17 98 rlineto
          -66 hlineto
          hintmask 11101100
          -58 -47 28 53 80 71 41 95 77 44 -25 -54 -6 0 -6 -3 -23 hvcurveto
          -34 callgsubr
          6 33 1 12 10 vvcurveto
          97 -97 61 -148 -160 -126 -76 -138 -66 39 -36 54 -26 vhcurveto
          -1 -4 rlineto
          hintmask 11110100
          -90 -19 -77 -66 -111 vvcurveto
          -107 100 -61 158 vhcurveto
          endchar
        </CharString>
        <CharString name="ampersand.alt">
          59 -14 96 -82 117 -96 -21 603 95 hstemhm
          26 117 47 113 139 115 hintmask 00111110
          655 350 rmoveto
          -112 hlineto
          -16 -58 -23 -49 -27 -39 -99 151 rcurveline
          112 41 67 81 88 vvcurveto
          78 -61 55 -101 -115 -90 -76 -111 -34 8 -38 20 -38 vhcurveto
          -117 -42 -75 -92 -104 vvcurveto
          hintmask 10011110
          -99 76 -78 140 74 70 20 38 62 vhcurveto
          hintmask 00111110
          29 -44 rlineto
          134 hlineto
          hintmask 01011110
          -77 117 rlineto
          hintmask 00111110
          54 59 42 78 25 96 rrcurveto
          -272 253 rmoveto
          37 22 -24 -34 -50 -46 -48 -67 -19 hvcurveto
          -18 27 -8 30 29 vvcurveto
          53 32 36 48 vhcurveto
          hintmask 10011110
          -133 -521 rmoveto
          -73 -34 37 58 67 50 58 74 22 hvcurveto
          130 -200 rlineto
          -28 -44 -49 -14 -54 hhcurveto
          endchar
        </CharString>
        <CharString name="aogonek">
          -65 -182 68 102 103 -75 -21 443 100 -12 -20 28 callgsubr
          181 102 hintmask 11010100
          467 113 rmoveto
          hintmask 11001100
          9 31 156 44 248 vhcurveto
          -99 hlineto
          hintmask 11010110
          -31 -61 rlineto
          -6 hlineto
          49 -29 -45 24 -73 hhcurveto
          -159 -82 -180 -168 -134 68 -68 102 62 60 30 56 37 hvcurveto
          5 hlineto
          hintmask 10110110
          -40 18 -29 32 -10 vhcurveto
          -46 -24 -32 -31 -46 vvcurveto
          -57 46 -19 45 22 22 5 9 26 vhcurveto
          9 54 rlineto
          -26 hlineto
          -30 -12 13 22 40 53 28 36 15 hvcurveto
          14 82 rlineto
          -33 hlineto
          hintmask 11010100
          -16 -13 8 19 hvcurveto
          -237 -22 rmoveto
          -61 -26 37 69 101 36 140 111 63 29 -38 -71 -75 -38 -163 -114 hvcurveto
          endchar
        </CharString>
        <CharString name="approxequal">
          -95 59 110 -50 110 42 110 -50 111 hstemhm
          -9 557 hintmask 00000000
          hintmask 01011000
          27 259 rmoveto
          0 72 72 82 vhcurveto
          hintmask 01101000
          79 callgsubr
          77 callsubr
          0 -72 -73 -82 vhcurveto
          hintmask 01011000
          -75 -46 61 -73 hhcurveto
          -93 -60 -73 0 hvcurveto
          -56 -322 rmoveto
          0 70 72 83 vhcurveto
          hintmask 10101000
          79 callgsubr
          19 110 rlineto
          0 -71 -72 -83 vhcurveto
          hintmask 01101000
          -75 -45 60 -73 hhcurveto
          -94 -60 -72 0 hvcurveto
          endchar
        </CharString>
        <CharString name="aring">
          -72 callsubr
          53 53 93 53 28 callgsubr
          70 54 94 53 hintmask 0000000000000000
          hintmask 1001111110000000
          301 559 rmoveto
          67 46 51 64 48 -32 36 -56 -69 -44 -53 -63 -47 33 -36 55 hvcurveto
          0 callsubr
          hintmask 0110011110000000
          -104 callgsubr
          hintmask 1010011110000000
          -35 callsubr
          hintmask 1001111110000000
          -27 callgsubr
          hintmask 0110011110000000
          -97 callgsubr
          endchar
        </CharString>
        <CharString name="aringacute">
          -72 callsubr
          53 53 93 53 20 37 callgsubr
          70 54 94 53 hintmask 0000000000000000
          hintmask 0110111111000000
          514 907 -29 callgsubr
          -84 -219 rmoveto
          67 46 51 64 hvcurveto
          hintmask 0110010111000000
          48 -32 36 -56 -69 -44 -53 -63 vhcurveto
          hintmask 0110111111000000
          -47 33 -36 55 vhcurveto
          hintmask 1001110111000000
          0 callsubr
          hintmask 0110010111000000
          -104 callgsubr
          hintmask 1010010111000000
          -35 callsubr
          hintmask 1001110111000000
          -27 callgsubr
          hintmask 0110010111000000
          -97 callgsubr
          endchar
        </CharString>
        <CharString name="arrowboth">
          356 204 97 hstem
          32 921 vstem
          199 72 rmoveto
          48 hlineto
          -29 132 rlineto
          534 hlineto
          -78 -132 rlineto
          57 hlineto
          219 170 3 21 -167 170 rlineto
          -48 hlineto
          31 -132 rlineto
          -534 hlineto
          76 132 rlineto
          -57 hlineto
          -219 -170 -3 -21 rlineto
          endchar
        </CharString>
        <CharString name="arrowdown">
          -144 11 -21 hstem
          15 368 62 callsubr
          56 -141 -55 128 728 rlineto
          -97 hlineto
          -128 -728 -122 55 -8 -48 rlineto
          endchar
        </CharString>
        <CharString name="arrowleft">
          356 204 96 hstem
          26 928 vstem
          193 72 rmoveto
          49 hlineto
          -32 132 rlineto
          728 hlineto
          16 96 rlineto
          -727 hlineto
          78 133 rlineto
          -56 hlineto
          -220 -170 -3 -21 rlineto
          endchar
        </CharString>
        <CharString name="arrowright">
          356 204 96 hstem
          24 928 vstem
          673 72 rmoveto
          56 hlineto
          220 169 3 21 -167 171 rlineto
          -49 hlineto
          32 -133 rlineto
          -728 hlineto
          -16 -96 rlineto
          727 hlineto
          endchar
        </CharString>
        <CharString name="arrowup">
          -144 -207 918 hstem
          94 369 vstem
          107 -207 rmoveto
          97 hlineto
          128 727 122 -55 9 49 -136 52 callgsubr
          -10 -57 141 55 rlineto
          endchar
        </CharString>
        <CharString name="arrowupdn">
          -144 11 -21 hstem
          14 453 62 callsubr
          57 -141 -55 94 534 122 -53 9 49 -135 52 callgsubr
          -11 -57 141 53 -94 -534 -122 55 -9 -49 rlineto
          endchar
        </CharString>
        <CharString name="arrowupdnbse">
          -144 -233 73 hstem
          -22 491 vstem
          168 -112 rmoveto
          21 hlineto
          203 189 9 56 -141 -55 78 440 123 -53 8 49 -135 52 callgsubr
          -10 -57 141 53 -78 -440 -123 55 -8 -48 rlineto
          -55 -318 rmoveto
          360 hlineto
          13 73 rlineto
          -361 hlineto
          endchar
        </CharString>
        <CharString name="asciicircum">
          -175 580 106 0 -20 hstemhm
          19 419 hintmask 01100000
          19 294 rmoveto
          105 hlineto
          hintmask 10100000
          157 286 57 -286 rlineto
          100 hlineto
          -88 392 rlineto
          -107 hlineto
          endchar
        </CharString>
        <CharString name="asciitilde">
          -60 215 110 -49 109 hstemhm
          24 535 hintmask 01100000
          24 203 rmoveto
          0 72 73 85 vhcurveto
          hintmask 10100000
          78 48 -61 76 hhcurveto
          97 60 73 0 hvcurveto
          19 109 rlineto
          0 -72 -72 -85 vhcurveto
          hintmask 01100000
          -78 -48 60 -76 hhcurveto
          -97 -60 -72 0 hvcurveto
          endchar
        </CharString>
        <CharString name="asterisk">
          -255 686 -20 hstemhm
          198 47 -30 47 hintmask 00000000
          hintmask 11000000
          160 362 rmoveto
          83 hlineto
          4 119 83 -74 53 71 -103 46 120 47 -29 70 rlineto
          hintmask 10100000
          -109 -73 38 118 rlineto
          -83 hlineto
          -4 -119 -83 74 -53 -70 104 -47 -121 -46 29 -71 rlineto
          hintmask 11000000
          109 74 rlineto
          endchar
        </CharString>
        <CharString name="at">
          345 -153 70 104 95 -94 89 318 92 107 70 hstemhm
          37 81 137 114 191 105 203 79 hintmask 1011111110000000
          552 698 rmoveto
          -323 -192 -152 -341 -208 99 -150 303 80 58 9 5 33 hvcurveto
          11 74 rlineto
          0 -77 -18 -105 -247 -74 125 170 283 165 133 269 205 111 -96 -153 -135 -63 -133 -103 -26 -11 7 18 9 28 141 40 224 vhcurveto
          -92 hlineto
          -27 -55 rlineto
          -6 hlineto
          44 -26 -41 22 -66 hhcurveto
          -145 -75 -164 -152 hvcurveto
          hintmask 1101111110000000
          -122 62 -62 93 57 55 28 51 33 vhcurveto
          5 -10 hlineto
          hintmask 1011111110000000
          -52 53 -16 47 208 79 198 159 197 -138 122 -257 vhcurveto
          hintmask 1101111110000000
          -103 -582 rmoveto
          -56 -24 33 62 92 33 126 102 56 27 -33 -65 -68 -35 -147 -103 hvcurveto
          endchar
        </CharString>
        <CharString name="atilde">
          -72 callsubr
          101 81 -46 81 28 callgsubr
          hintmask 01100110
          248 642 rmoveto
          hintmask 01101010
          48 35 -35 52 hhcurveto
          hintmask 01100110
          0 callgsubr
          hintmask 10010110
          221 -529 -75 callgsubr
          hintmask 01100110
          -104 callgsubr
          hintmask 10100110
          -35 callsubr
          hintmask 10010110
          -27 callgsubr
          hintmask 01100110
          -97 callgsubr
          endchar
        </CharString>
        <CharString name="b">
          -12 100 -67 -21 435 103 185 -20 hstemhm
          428 124 hintmask 10111000
          298 -12 rmoveto
          175 79 182 167 138 -71 63 -105 -66 -52 -26 -47 -37 hvcurveto
          -6 hlineto
          45 258 -81 callsubr
          hintmask 01111000
          -127 -723 rlineto
          99 hlineto
          hintmask 10111000
          22 70 rlineto
          7 hlineto
          -55 26 57 -27 74 hhcurveto
          -28 100 rmoveto
          -65 -32 39 74 94 43 140 115 67 30 -34 -71 -103 -38 -139 -120 hvcurveto
          endchar
        </CharString>
        <CharString name="backslash">
          -366 735 -20 hstem
          73 137 vstem
          122 -49 rmoveto
          88 hlineto
          -51 784 rlineto
          -86 hlineto
          endchar
        </CharString>
        <CharString name="bar">
          60 callsubr
          -173 rmoveto
          93 896 -93 hlineto
          endchar
        </CharString>
        <CharString name="braceleft">
          57 callsubr
          63 105 -66 97 hintmask 10111000
          241 -159 rmoveto
          12 70 rlineto
          -41 -44 9 43 hvcurveto
          hintmask 11110100
          19 31 185 34 vvcurveto
          52 -26 30 -71 vhcurveto
          1 10 rlineto
          hintmask 10110100
          92 26 37 71 15 hvcurveto
          11 53 22 91 10 55 rrcurveto
          54 10 55 11 42 hhcurveto
          12 70 rlineto
          -134 -70 -22 -126 -22 hvcurveto
          -35 -194 rlineto
          -45 -8 -50 -15 -43 hhcurveto
          hintmask 11110100
          -17 -90 rlineto
          41 42 -12 -38 hvcurveto
          hintmask 10111000
          -28 -39 -161 -51 vvcurveto
          -94 70 -18 108 vhcurveto
          endchar
        </CharString>
        <CharString name="braceright">
          57 callsubr
          150 97 -65 105 hintmask 11010100
          -49 -159 rmoveto
          hintmask 11011000
          134 71 22 126 22 hvcurveto
          34 194 rlineto
          45 8 50 15 44 hhcurveto
          hintmask 11111000
          16 90 rlineto
          -40 -43 12 38 hvcurveto
          hintmask 11010100
          28 40 161 51 vvcurveto
          94 -70 18 -109 vhcurveto
          -11 -70 rlineto
          40 45 -9 -43 hvcurveto
          hintmask 11111000
          -19 -32 -185 -34 vvcurveto
          -52 27 -30 71 vhcurveto
          -2 -10 rlineto
          hintmask 11011000
          -92 -25 -37 -71 -16 hvcurveto
          -11 -53 -21 -91 -10 -55 rrcurveto
          -54 -10 -56 -11 -42 hhcurveto
          endchar
        </CharString>
        <CharString name="bracketleft">
          -330 -161 85 726 85 hstem
          -14 362 vstem
          -14 -161 rmoveto
          205 hlineto
          14 85 rlineto
          -103 hlineto
          129 726 rlineto
          103 hlineto
          14 85 rlineto
          -206 hlineto
          endchar
        </CharString>
        <CharString name="bracketright">
          -330 -161 85 726 85 hstem
          -54 362 vstem
          -54 -161 rmoveto
          205 hlineto
          157 896 rlineto
          -206 hlineto
          -14 -85 rlineto
          103 hlineto
          -129 -726 rlineto
          -102 hlineto
          endchar
        </CharString>
        <CharString name="breve">
          -311 593 65 callgsubr
          20 82 hintmask 01100000
          165 593 -83 callsubr
          hintmask 10100000
          -47 callsubr
          hintmask 01100000
          -89 callgsubr
          endchar
        </CharString>
        <CharString name="brokenbar">
          60 callsubr
          357 rmoveto
          93 366 -93 hlineto
          -896 vmoveto
          93 366 -93 hlineto
          endchar
        </CharString>
        <CharString name="bullet">
          -294 212 263 hstem
          43 264 vstem
          169 212 rmoveto
          80 58 63 75 69 -55 56 -71 -81 -57 -64 -75 -69 55 -55 71 hvcurveto
          endchar
        </CharString>
        <CharString name="c">
          47 callsubr
          22 callgsubr
          243 -12 -88 callgsubr
        </CharString>
        <CharString name="cacute">
          47 callsubr
          53 132 22 callgsubr
          262 591 -94 callgsubr
          -123 -735 -88 callgsubr
        </CharString>
        <CharString name="cacute.loclPLK">
          47 callsubr
          53 132 22 callgsubr
          254 591 -51 callsubr
          -59 -735 -88 callgsubr
        </CharString>
        <CharString name="caron">
          -311 588 135 hstem
          18 319 vstem
          100 588 -96 callsubr
          endchar
        </CharString>
        <CharString name="ccaron">
          47 callsubr
          50 135 22 callgsubr
          259 588 -96 callsubr
          66 -735 -88 callgsubr
        </CharString>
        <CharString name="ccedilla">
          -107 32 callsubr
          48 -21 448 97 hstemhm
          18 124 94 96 51 123 hintmask 10011111
          503 329 rmoveto
          2 15 1 15 14 vvcurveto
          105 -75 60 -137 -199 -77 -175 -174 -116 52 -64 109 -16 vhcurveto
          hintmask 10111111
          -24 -70 -24 callsubr
          hintmask 01011111
          -9 -49 rlineto
          hintmask 10111111
          -5 callsubr
          7 22 129 4 77 77 20 128 rlinecurve
          -116 hlineto
          -65 -12 -39 -47 -72 hhcurveto
          -68 -31 36 76 21 2 23 6 35 hvcurveto
          97 18 42 68 87 hhcurveto
          62 24 -34 -51 -9 -1 -9 -1 -9 hvcurveto
          endchar
        </CharString>
        <CharString name="ccircumflex">
          47 callsubr
          50 135 -63 63 hstemhm
          18 124 241 123 hintmask 11101100
          147 588 -49 callsubr
          hintmask 11011100
          65 72 rlineto
          hintmask 11101100
          44 -72 rlineto
          99 hlineto
          -82 135 rlineto
          -108 hlineto
          -33 -735 -88 callgsubr
        </CharString>
        <CharString name="cdotaccent">
          47 callsubr
          68 118 22 callgsubr
          256 -21 callgsubr
          -34 -736 -88 callgsubr
        </CharString>
        <CharString name="cedilla">
          -311 -182 57 -28 -21 97 88 hstemhm
          180 96 hintmask 10110000
          134 -182 rmoveto
          55 87 14 71 43 -38 18 -47 2 hvcurveto
          15 45 rlineto
          -77 hlineto
          -30 -88 -24 callsubr
          hintmask 01110000
          -9 -49 rlineto
          hintmask 10110000
          -5 29 39 -3 35 hhcurveto
          endchar
        </CharString>
        <CharString name="cent">
          -88 723 -20 hstem
          40 123 241 123 vstem
          191 -49 rmoveto
          51 hlineto
          21 116 139 1 78 79 21 129 rlinecurve
          -116 hlineto
          -10 -59 -34 -44 -61 -8 62 353 rcurveline
          44 -8 18 -31 -44 vvcurveto
          -8 0 -9 -1 -10 vhcurveto
          121 hlineto
          2 16 1 15 14 vvcurveto
          92 -58 58 -109 11 vhcurveto
          19 109 rlineto
          -51 hlineto
          -19 -106 rlineto
          -194 -4 -75 -173 -172 vvcurveto
          -120 56 -64 116 -14 vhcurveto
          18 97 rmoveto
          -46 11 -21 35 64 vvcurveto
          19 2 22 6 33 vhcurveto
          15 88 35 66 71 12 rrcurveto
          endchar
        </CharString>
        <CharString name="circumflex">
          -311 588 135 -63 63 hstemhm
          -5 319 hintmask 10100000
          -5 588 -49 callsubr
          hintmask 01100000
          65 72 rlineto
          hintmask 10100000
          -99 callgsubr
          endchar
        </CharString>
        <CharString name="colon">
          -330 0 127 272 127 hstem
          38 218 vstem
          109 399 20 callsubr
          -93 -526 20 callsubr
          endchar
        </CharString>
        <CharString name="comma">
          -366 0 127 hstem
          -4 173 vstem
          -4 -16 callgsubr
          49 hlineto
          endchar
        </CharString>
        <CharString name="copyright">
          93 -12 57 87 62 296 62 89 57 hstem
          13 59 118 75 188 74 137 -38 callgsubr
          87 vmoveto
          115 44 77 86 hvcurveto
          -70 hlineto
          -65 -25 -36 -64 -73 -30 42 106 107 32 41 71 65 20 -32 -69 vhcurveto
          74 hlineto
          106 -46 57 -113 -122 -56 -66 -144 -144 55 -66 123 vhcurveto
          endchar
        </CharString>
        <CharString name="currency">
          -88 102 79 338 79 hstem
          33 82 326 82 vstem
          74 99 rmoveto
          55 58 rlineto
          -37 40 55 -18 54 hhcurveto
          54 55 18 37 40 hvcurveto
          55 -58 45 45 -54 56 rlineto
          34 42 16 54 55 vvcurveto
          55 -16 56 -34 39 vhcurveto
          55 54 -48 48 -57 -56 rlineto
          33 -38 -54 18 -53 hhcurveto
          -53 -54 -18 -33 -38 hvcurveto
          -57 56 -48 -48 55 -54 rlineto
          -34 -39 -16 -56 -55 vvcurveto
          -55 16 -54 34 -42 vhcurveto
          -54 -56 rlineto
          249 37 rmoveto
          -91 -72 79 91 89 73 79 90 90 73 -79 -89 -91 -72 -79 -91 hvcurveto
          endchar
        </CharString>
        <CharString name="d">
          -12 103 -91 91 347 100 185 -20 hstemhm
          19 125 hintmask 10111000
          -15 callsubr
          hintmask 01111000
          -57 callgsubr
          hintmask 10111000
          9 callgsubr
          endchar
        </CharString>
        <CharString name="dagger">
          -88 686 -20 hstem
          58 497 vstem
          141 -172 rmoveto
          107 hlineto
          86 599 202 -18 19 106 -208 -17 49 188 rlineto
          -101 hlineto
          -17 -188 -201 17 -19 -106 207 18 rlineto
          endchar
        </CharString>
        <CharString name="daggerdbl">
          -88 686 -20 hstem
          -14 567 vstem
          142 -172 rmoveto
          101 hlineto
          18 190 201 -17 19 106 -208 -18 49 171 11 167 201 -18 19 106 -207 -17 49 188 rlineto
          -101 hlineto
          -18 -188 -201 17 -18 -106 206 18 -48 -167 -11 -171 -201 18 -17 -106 206 17 rlineto
          endchar
        </CharString>
        <CharString name="dcaron">
          42 -12 103 -91 91 347 100 33 115 -115 152 hstemhm
          19 125 hintmask 10110100
          -15 callsubr
          hintmask 01101100
          -57 callgsubr
          hintmask 10110100
          -145 70 -63 116 vhcurveto
          399 471 rmoveto
          63 hlineto
          79 123 18 104 -81 callsubr
          -19 -115 rlineto
          47 hlineto
          -431 -480 -30 callgsubr
        </CharString>
        <CharString name="dcroat">
          -12 103 -91 91 347 100 52 68 -68 133 hstemhm
          19 125 hintmask 10101100
          -15 callsubr
          hintmask 01101100
          -70 97 vlineto
          104 590 rlineto
          62 hlineto
          hintmask 10110100
          12 68 rlineto
          -63 hlineto
          hintmask 10101100
          12 65 -81 callsubr
          hintmask 10110100
          -11 -65 rlineto
          -148 hlineto
          hintmask 10101100
          -12 -68 rlineto
          148 hlineto
          -22 -125 rlineto
          -6 hlineto
          47 -31 -47 26 -78 hhcurveto
          -164 -83 -178 -164 -145 70 -63 116 hvcurveto
          36 103 -30 callgsubr
        </CharString>
        <CharString name="degree">
          -244 401 72 152 73 hstem
          60 72 152 73 vstem
          209 401 rmoveto
          83 65 65 83 83 -65 66 -83 -83 -66 -66 -83 -83 66 -65 83 hvcurveto
          72 vmoveto
          -43 -34 34 42 43 34 33 43 42 33 -33 -43 -42 -33 -34 -42 hvcurveto
          endchar
        </CharString>
        <CharString name="dieresis">
          -311 613 110 hstem
          2 329 vstem
          2 613 -99 callsubr
          endchar
        </CharString>
        <CharString name="divide">
          -95 1 106 100 97 101 107 hstem
          22 489 vstem
          235 405 rmoveto
          113 hlineto
          20 107 rlineto
          -113 hlineto
          -233 -305 33 callgsubr
          -472 hlineto
          125 -303 rmoveto
          113 hlineto
          19 106 rlineto
          -113 hlineto
          endchar
        </CharString>
        <CharString name="dollar">
          -88 68 177 207 163 108 -20 hstemhm
          26 120 -68 125 164 125 -95 122 hintmask 11101100
          185 -49 rmoveto
          51 hlineto
          20 116 rlineto
          123 1 113 51 137 vvcurveto
          98 -96 25 -81 20 vhcurveto
          hintmask 11101010
          22 121 rlineto
          40 -5 20 -20 -28 vvcurveto
          -4 0 -6 -2 -5 vhcurveto
          117 hlineto
          1 2 6 21 20 vvcurveto
          65 -64 45 -101 10 vhcurveto
          19 108 rlineto
          -51 hlineto
          -19 -106 rlineto
          -126 -3 -99 -62 -112 vvcurveto
          -93 90 -25 79 -21 vhcurveto
          hintmask 11110100
          -25 -138 rlineto
          -42 5 -34 18 40 vvcurveto
          3 1 10 3 6 vhcurveto
          -117 hlineto
          -4 -11 -3 -17 -13 vvcurveto
          -73 59 -53 121 -10 vhcurveto
          hintmask 11101100
          61 344 rmoveto
          -38 11 -26 14 27 vvcurveto
          26 25 26 58 5 vhcurveto
          -13 -359 rmoveto
          22 126 rlineto
          41 -13 31 -17 -31 vvcurveto
          -42 -45 -18 -49 -5 vhcurveto
          endchar
        </CharString>
        <CharString name="dotaccent">
          -311 606 118 hstem
          97 139 vstem
          97 -21 callgsubr
          endchar
        </CharString>
        <CharString name="dotbelowcomb">
          -644 -33 callsubr
          hstem
          -312 139 vstem
          -312 -173 -93 callsubr
          endchar
        </CharString>
        <CharString name="dotlessi">
          -23 callgsubr
          hstem
          21 213 vstem
          21 hmoveto
          -65 callsubr
          endchar
        </CharString>
        <CharString name="e">
          -45 callgsubr
          hstem
          -43 callsubr
          vstem
          254 -12 -104 callsubr
        </CharString>
        <CharString name="eacute">
          -4 callsubr
          267 591 -94 callgsubr
          -117 -78 callgsubr
        </CharString>
        <CharString name="ebreve">
          -45 callgsubr
          55 65 callgsubr
          18 122 33 82 141 120 hintmask 11101111
          318 593 -83 callsubr
          hintmask 11110111
          -47 callsubr
          hintmask 11101111
          -89 callgsubr
          -64 -605 -104 callsubr
        </CharString>
        <CharString name="ecaron">
          -45 callgsubr
          50 135 hstem
          -43 callsubr
          vstem
          264 588 -96 callsubr
          72 -78 callgsubr
        </CharString>
        <CharString name="ecircumflex">
          -45 callgsubr
          50 135 -63 63 17 callgsubr
          hintmask 11110110
          152 588 -49 callsubr
          hintmask 11101110
          65 72 rlineto
          hintmask 11110110
          -90 callsubr
          endchar
        </CharString>
        <CharString name="edieresis">
          -45 callgsubr
          75 110 hstem
          -43 callsubr
          vstem
          168 613 -99 callsubr
          -135 -78 callgsubr
        </CharString>
        <CharString name="edotaccent">
          -45 callgsubr
          68 118 hstem
          -43 callsubr
          vstem
          261 -21 callgsubr
          -28 -736 -104 callsubr
        </CharString>
        <CharString name="egrave">
          -4 callsubr
          273 591 -78 callsubr
          66 -732 -104 callsubr
        </CharString>
        <CharString name="eight">
          -88 -12 97 217 97 202 97 hstemhm
          5 126 -52 121 174 124 -85 123 hintmask 00000000
          hintmask 11110100
          233 -12 rmoveto
          178 87 107 122 60 -26 47 -60 28 hvcurveto
          hintmask 11101010
          81 37 43 69 76 vvcurveto
          93 -67 71 -141 -153 -96 -104 -118 -52 22 -45 47 -27 vhcurveto
          hintmask 11110100
          -95 -36 -48 -75 -91 vvcurveto
          -92 65 -70 163 vhcurveto
          hintmask 11101010
          55 411 rmoveto
          -57 -31 27 49 79 52 47 72 57 32 -28 -49 -81 -56 -44 -69 hvcurveto
          hintmask 11110100
          -55 -314 rmoveto
          -67 -35 31 52 83 56 51 84 68 35 -30 -54 -86 -66 -47 -75 hvcurveto
          endchar
        </CharString>
        <CharString name="ellipsis">
          356 0 127 hstem
          54 814 vstem
          54 hmoveto
          125 13 callsubr
          -124 hlineto
          309 -127 rmoveto
          125 13 callsubr
          -124 hlineto
          309 -127 rmoveto
          125 13 callsubr
          -125 hlineto
          endchar
        </CharString>
        <CharString name="emacron">
          -45 callgsubr
          79 82 hstem
          -43 callsubr
          vstem
          171 617 -59 callgsubr
          68 -711 -104 callsubr
        </CharString>
        <CharString name="emdash">
          24 callgsubr
        </CharString>
        <CharString name="endash">
          -88 225 90 hstem
          -12 571 vstem
          -12 225 rmoveto
          555 hlineto
          16 90 rlineto
          -556 hlineto
          endchar
        </CharString>
        <CharString name="eng">
          -182 97 106 21 callgsubr
          hintmask 11011000
          319 -182 rmoveto
          97 35 68 66 12 hvcurveto
          66 373 rlineto
          5 29 4 26 24 vvcurveto
          hintmask 11101000
          97 -67 37 -85 -69 -66 -37 -46 -38 vhcurveto
          -7 hlineto
          hintmask 11011000
          71 -97 vlineto
          -93 -526 37 callsubr
          50 283 rlineto
          hintmask 11101000
          97 17 66 54 73 hhcurveto
          43 28 -17 -50 -14 -3 -17 -3 -18 hvcurveto
          -63 -358 rlineto
          -29 -5 -17 -16 -30 hhcurveto
          -49 60 callgsubr
          hintmask 11011000
          -8 20 39 -7 31 hhcurveto
          endchar
        </CharString>
        <CharString name="eogonek">
          -88 -182 68 102 -40 callsubr
          hstemhm
          18 122 129 103 24 120 hintmask 00000000
          hintmask 11111110
          360 7 callgsubr
          9 54 rlineto
          -21 hlineto
          -29 -18 22 25 31 12 43 44 44 hvcurveto
          35 35 20 40 10 58 rrcurveto
          39 callsubr
          hintmask 11111010
          359 58 callgsubr
          -142 -205 -79 -170 -178 -138 79 -64 157 vhcurveto
          hintmask 11111110
          19 18 1 4 19 hvcurveto
          -23 -26 -18 -31 -38 vvcurveto
          -61 45 -19 46 vhcurveto
          -200 501 rmoveto
          hintmask 11111010
          81 22 46 43 77 hhcurveto
          55 36 -26 -63 -10 -1 -13 -2 -12 hvcurveto
          endchar
        </CharString>
        <CharString name="equal">
          -60 99 97 115 98 hstem
          24 526 vstem
          61 311 65 callsubr
          98 rlineto
          -472 hlineto
          -54 -310 33 callgsubr
          -472 hlineto
          endchar
        </CharString>
        <CharString name="equivalence">
          -61 14 96 116 97 116 97 hstem
          3 565 vstem
          78 439 rmoveto
          473 hlineto
          17 97 rlineto
          -473 hlineto
          -55 -310 rmoveto
          473 hlineto
          18 97 rlineto
          -473 hlineto
          -55 -309 rmoveto
          473 hlineto
          17 96 rlineto
          -473 hlineto
          endchar
        </CharString>
        <CharString name="estimated">
          -44 -12 42 218 42 206 42 hstem
          45 108 298 108 vstem
          302 -12 rmoveto
          104 78 50 80 42 hvcurveto
          -34 21 rlineto
          -67 -34 -68 -42 -88 hhcurveto
          -62 -50 19 34 -37 hvcurveto
          165 406 5 vlineto
          165 -98 120 -159 -160 -97 -116 -159 -159 97 -116 160 vhcurveto
          -149 302 rmoveto
          152 vlineto
          34 37 50 20 62 hhcurveto
          61 50 -20 -35 38 hvcurveto
          -151 vlineto
          endchar
        </CharString>
        <CharString name="eth">
          -12 98 347 98 64 66 -66 128 -109 72 -21 58 hstemhm
          19 125 281 126 hintmask 11010011
          256 -12 rmoveto
          220 75 164 193 hvcurveto
          hintmask 11001011
          99 -33 91 -53 76 vhcurveto
          100 6 13 69 -166 -12 rlineto
          hintmask 11010011
          -13 17 -17 16 -17 16 rrcurveto
          -136 hlineto
          -4 -5 rlineto
          hintmask 11000111
          19 -18 20 -17 17 -18 rrcurveto
          hintmask 11100011
          -102 -8 rlineto
          hintmask 11010011
          -11 -68 163 12 20 -28 17 -27 12 -28 rlinecurve
          -4 -3 rlineto
          11 -28 -33 5 -36 hhcurveto
          -69 -59 -25 -45 -42 hvcurveto
          -59 -62 -31 -98 -111 vvcurveto
          -138 79 -64 158 vhcurveto
          1 98 rmoveto
          -79 -34 36 75 21 2 22 6 33 hvcurveto
          97 17 45 63 97 hhcurveto
          79 35 -36 -75 -21 -2 -23 -6 -33 hvcurveto
          -97 -18 -46 -62 -96 hhcurveto
          endchar
        </CharString>
        <CharString name="exclam">
          -330 0 127 559 -20 hstem
          36 252 vstem
          92 188 40 callgsubr
          -113 -686 rmoveto
          124 13 callsubr
          -125 hlineto
          endchar
        </CharString>
        <CharString name="exclamdbl">
          -76 0 127 559 -20 hstem
          36 533 vstem
          92 188 40 callgsubr
          224 -498 40 callgsubr
          -394 -686 rmoveto
          124 13 callsubr
          -125 hlineto
          259 -127 rmoveto
          124 13 callsubr
          -125 hlineto
          endchar
        </CharString>
        <CharString name="exclamdown">
          -311 399 127 hstem
          29 253 vstem
          134 399 rmoveto
          125 13 callsubr
          -125 hlineto
          -128 -686 rmoveto
          139 hlineto
          57 498 rlineto
          -75 hlineto
          endchar
        </CharString>
        <CharString name="f">
          -330 -182 98 512 98 107 98 hstem
          -99 467 vstem
          -12 -182 rmoveto
          27 callgsubr
          96 78 callgsubr
          -96 hlineto
          11 62 -75 callsubr
          -8 20 37 66 callgsubr
        </CharString>
        <CharString name="f_f">
          -16 63 callsubr
          107 98 hstem
          -99 781 vstem
          616 633 rmoveto
          51 hlineto
          15 83 rlineto
          8 -20 -37 7 -31 hhcurveto
          -101 -37 -69 -68 -12 hvcurveto
          -11 -68 rlineto
          -194 hlineto
          11 62 -75 callsubr
          -8 20 37 -7 30 hhcurveto
          27 callgsubr
          194 hlineto
          -75 -428 37 callsubr
          75 428 rlineto
          96 hlineto
          17 98 rlineto
          -95 hlineto
          11 62 rlineto
          29 5 17 16 30 hhcurveto
          endchar
        </CharString>
        <CharString name="fi">
          -71 63 callsubr
          82 115 -90 98 hstemhm
          -99 673 hintmask 11110100
          -12 -182 rmoveto
          27 callgsubr
          96 78 callgsubr
          -96 hlineto
          hintmask 11101100
          11 62 -75 callsubr
          hintmask 11110100
          -8 20 37 -7 30 hhcurveto
          446 790 -43 callgsubr
          -127 -14 callsubr
        </CharString>
        <CharString name="five">
          -88 -12 98 264 96 131 109 hstem
          11 125 241 125 vstem
          235 -12 rmoveto
          148 119 104 177 121 -73 56 -103 -62 -43 -21 -19 -28 hvcurveto
          42 171 rlineto
          290 hlineto
          19 109 rlineto
          -395 hlineto
          -94 -380 110 -15 rlineto
          33 29 41 26 52 hhcurveto
          54 36 -32 -62 -118 -74 -52 -72 -59 -36 36 60 9 1 11 2 11 hvcurveto
          -124 hlineto
          -3 -17 -1 -15 -15 vvcurveto
          -113 85 -65 139 vhcurveto
          endchar
        </CharString>
        <CharString name="fiveeighths">
          45 callsubr
          -41 64 118 63 53 68 12 -20 hstemhm
          58 77 108 78 169 78 -41 77 72 76 -56 77 hintmask 1110110111010000
          45 -12 rmoveto
          91 hlineto
          hintmask 1101101111010000
          671 710 rlineto
          -91 hlineto
          -538 -378 rmoveto
          80 63 54 94 66 -40 31 -53 -26 -22 -7 -8 -14 hvcurveto
          hintmask 1101110111010000
          17 68 rlineto
          148 hlineto
          12 68 rlineto
          -213 hlineto
          -50 -198 67 -9 rlineto
          14 16 16 9 22 hhcurveto
          25 17 -12 -28 -52 -33 -26 -32 -26 -17 15 24 5 1 4 1 5 hvcurveto
          -77 hlineto
          -2 -9 0 -8 -8 vvcurveto
          hintmask 1101101111010000
          -58 45 -34 75 vhcurveto
          hintmask 1110110111010000
          434 -332 rmoveto
          92 48 55 65 30 -12 26 -28 16 hvcurveto
          hintmask 1110110110101000
          39 22 22 33 36 vvcurveto
          51 -36 39 -78 -81 -51 -53 -61 -26 12 -25 21 -16 vhcurveto
          hintmask 1110110111010000
          -49 -20 -21 -37 -43 vvcurveto
          -53 34 -39 88 vhcurveto
          hintmask 1110110110101000
          29 222 rmoveto
          -25 -12 20 callgsubr
          hintmask 1110110111010000
          -27 -159 rmoveto
          -31 56 callgsubr
          -33 hvcurveto
          endchar
        </CharString>
        <CharString name="fl">
          -71 63 callsubr
          107 90 -90 98 hstemhm
          -99 673 hintmask 11101100
          -12 -182 rmoveto
          27 callgsubr
          96 78 callgsubr
          -96 hlineto
          11 62 -75 callsubr
          -8 20 37 -7 30 hhcurveto
          339 182 -20 callsubr
          hintmask 11110100
          79 callsubr
        </CharString>
        <CharString name="florin">
          -88 -183 98 471 99 148 98 hstem
          -34 575 vstem
          44 -183 rmoveto
          107 42 59 78 24 hvcurveto
          130 432 rlineto
          96 hlineto
          28 99 rlineto
          -95 hlineto
          31 103 rlineto
          29 9 20 16 30 hhcurveto
          51 hlineto
          24 83 rlineto
          8 -17 -33 7 -29 hhcurveto
          -107 -41 -58 -79 -25 hvcurveto
          -33 -109 rlineto
          -76 hlineto
          -28 -99 rlineto
          75 hlineto
          -128 -426 rlineto
          -29 -9 -19 -16 -30 hhcurveto
          -51 hlineto
          -24 -83 rlineto
          -8 17 33 -7 28 hhcurveto
          endchar
        </CharString>
        <CharString name="four">
          -88 21 -21 154 98 446 -20 hstem
          -9 524 vstem
          265 70 callsubr
          28 154 rlineto
          85 hlineto
          17 98 rlineto
          -86 hlineto
          61 344 rlineto
          -57 hlineto
          -24 -53 -36 -70 -34 -50 -30 -171 rcurveline
          -190 hlineto
          51 55 152 212 74 179 rrcurveto
          -134 hlineto
          -71 -170 -81 -144 -103 -131 -16 -99 rcurveline
          302 hlineto
          endchar
        </CharString>
        <CharString name="fraction">
          16 callgsubr
        </CharString>
        <CharString name="franc">
          -88 21 -21 275 106 -27 122 104 106 hstemhm
          6 566 hintmask 11011000
          6 hmoveto
          126 hlineto
          48 275 rlineto
          102 hlineto
          -48 -275 37 callsubr
          37 212 rlineto
          hintmask 10111000
          97 17 44 45 63 hhcurveto
          37 hlineto
          20 113 rlineto
          0 -16 9 -25 -53 -36 -45 -50 -24 vhcurveto
          -7 hlineto
          2 83 rlineto
          -97 hlineto
          hintmask 11011000
          -15 -83 rlineto
          -102 hlineto
          35 199 rlineto
          228 hlineto
          18 106 rlineto
          -353 hlineto
          endchar
        </CharString>
        <CharString name="g">
          -22 callsubr
          80 callsubr
          hintmask 11101000
          207 -182 -13 callgsubr
          hintmask 11011000
          27 callsubr
          hintmask 11101000
          -86 callgsubr
          13 callgsubr
          -73 callsubr
        </CharString>
        <CharString name="g_tilde.loclGUA">
          -22 callsubr
          101 81 -46 81 80 callsubr
          hintmask 00000000
          hintmask 11101010
          156 41 callsubr
          hintmask 11100110
          -7 callgsubr
          hintmask 11101010
          48 35 -35 52 hhcurveto
          hintmask 11100110
          65 35 54 62 11 hvcurveto
          -68 hlineto
          hintmask 11101010
          -26 -8 -13 -9 -18 -48 -35 35 -53 hhcurveto
          -64 -35 -54 -62 -10 hvcurveto
          hintmask 11010110
          51 -789 -13 callgsubr
          27 callsubr
          hintmask 11100110
          -86 callgsubr
          hintmask 11010110
          13 callgsubr
          hintmask 11100110
          -73 callsubr
        </CharString>
        <CharString name="gbreve">
          -22 callsubr
          87 65 callgsubr
          22 124 27 82 hintmask 00000000
          hintmask 11100111
          318 593 -83 callsubr
          hintmask 11101011
          -47 callsubr
          hintmask 11100111
          -89 callgsubr
          hintmask 11010110
          -111 -775 -13 callgsubr
          27 callsubr
          hintmask 11100110
          -86 callgsubr
          hintmask 11010110
          13 callgsubr
          hintmask 11100110
          -73 callsubr
        </CharString>
        <CharString name="gcaron">
          -22 callsubr
          82 135 80 callsubr
          hintmask 11101100
          264 588 -96 callsubr
          25 -905 -13 callgsubr
          hintmask 11011100
          27 callsubr
          hintmask 11101100
          -86 callgsubr
          13 callgsubr
          -73 callsubr
        </CharString>
        <CharString name="gcircumflex">
          -22 callsubr
          82 135 -63 63 80 callsubr
          hintmask 11101010
          152 588 -49 callsubr
          hintmask 11100110
          65 72 rlineto
          hintmask 11011010
          -99 callgsubr
          -74 -905 -13 callgsubr
          27 callsubr
          hintmask 11101010
          -86 callgsubr
          hintmask 11011010
          13 callgsubr
          hintmask 11101010
          -73 callsubr
        </CharString>
        <CharString name="gcommaaccent">
          -22 callsubr
          87 96 80 callsubr
          hintmask 11101100
          263 593 rmoveto
          121 hlineto
          17 96 rlineto
          -46 hlineto
          63 91 rlineto
          -63 hlineto
          -77 -102 rlineto
          -71 -860 -13 callgsubr
          hintmask 11011100
          27 callsubr
          hintmask 11101100
          -86 callgsubr
          13 callgsubr
          -73 callsubr
        </CharString>
        <CharString name="gdotaccent">
          -22 callsubr
          100 118 80 callsubr
          hintmask 11101100
          261 -21 callgsubr
          -75 -906 -13 callgsubr
          hintmask 11011100
          27 callsubr
          hintmask 11101100
          -86 callgsubr
          13 callgsubr
          -73 callsubr
        </CharString>
        <CharString name="germandbls">
          -33 0 98 233 104 203 97 hstemhm
          436 121 -90 125 hintmask 11110000
          8 70 callsubr
          91 519 rlineto
          77 14 56 42 76 hhcurveto
          hintmask 11101000
          70 32 -36 -52 -66 -55 -49 -68 hvcurveto
          -72 hlineto
          -19 -104 rlineto
          78 hlineto
          hintmask 11110000
          64 41 -42 -60 -68 -56 -63 -89 hvcurveto
          -78 80 callgsubr
          93 hlineto
          159 109 93 137 83 -37 53 -72 26 hvcurveto
          4 vlineto
          hintmask 11101000
          87 26 57 66 82 vvcurveto
          104 -83 61 -143 -66 -63 -16 -37 -48 vhcurveto
          -45 -35 -32 -56 -14 -78 rrcurveto
          endchar
        </CharString>
        <CharString name="grave">
          53 callsubr
          86 176 vstem
          171 591 -78 callsubr
          endchar
        </CharString>
        <CharString name="greater">
          -60 3 513 hstem
          7 530 vstem
          7 3 rmoveto
          509 196 21 120 -439 197 71 callgsubr
          endchar
        </CharString>
        <CharString name="greaterequal">
          -95 0 97 435 -20 hstem
          -18 551 vstem
          3 124 rmoveto
          509 197 21 120 -439 196 71 callgsubr
          -40 -236 33 callgsubr
          -472 hlineto
          endchar
        </CharString>
        <CharString name="guillemotleft">
          -88 326 200 0 -20 hstemhm
          58 486 hintmask 01100000
          165 126 rmoveto
          89 hlineto
          hintmask 10100000
          19 callsubr
          326 -200 rmoveto
          89 hlineto
          19 callsubr
          endchar
        </CharString>
        <CharString name="guillemotright">
          -88 326 200 0 -20 hstemhm
          9 479 hintmask 01100000
          9 126 rmoveto
          98 hlineto
          hintmask 10100000
          19 callgsubr
          60 -200 rmoveto
          98 hlineto
          19 callgsubr
          endchar
        </CharString>
        <CharString name="guilsinglleft">
          -311 526 -20 hstem
          58 267 vstem
          165 126 rmoveto
          89 hlineto
          19 callsubr
          endchar
        </CharString>
        <CharString name="guilsinglright">
          -311 526 -20 hstem
          9 268 vstem
          9 126 rmoveto
          98 hlineto
          19 callgsubr
          endchar
        </CharString>
        <CharString name="h">
          21 -21 434 104 185 -20 hstem
          413 125 vstem
          16 hmoveto
          -68 callsubr
          45 257 -81 callsubr
          endchar
        </CharString>
        <CharString name="hbar">
          21 -21 434 104 52 68 -68 133 26 callgsubr
          hintmask 11011000
          16 hmoveto
          -68 callsubr
          21 124 rlineto
          149 hlineto
          hintmask 11101000
          12 68 rlineto
          -149 hlineto
          hintmask 11011000
          12 65 -81 callsubr
          hintmask 11101000
          -12 -65 rlineto
          -61 hlineto
          hintmask 11011000
          -12 -68 rlineto
          61 hlineto
          endchar
        </CharString>
        <CharString name="hcircumflex">
          21 -21 434 104 185 -20 45 135 26 callgsubr
          hintmask 00000000
          hintmask 11111000
          41 748 -93 callgsubr
          -154 -883 rmoveto
          -68 callsubr
          hintmask 11101000
          45 257 -81 callsubr
          endchar
        </CharString>
        <CharString name="hookabovecomb">
          -644 591 77 callgsubr
          -97 97 vstem
          -155 591 rmoveto
          -101 callgsubr
          -11 callsubr
          hvcurveto
          -14 hlineto
          endchar
        </CharString>
        <CharString name="house">
          -40 0 60 hstem
          77 59 332 59 vstem
          77 hmoveto
          450 310 hlineto
          -225 253 -225 -253 rlineto
          59 -250 rmoveto
          226 vlineto
          166 189 166 -189 rlineto
          -226 vlineto
          endchar
        </CharString>
        <CharString name="hungarumlaut">
          53 callsubr
          0 387 vstem
          591 vmoveto
          -52 callsubr
          endchar
        </CharString>
        <CharString name="hyphen">
          17 callsubr
        </CharString>
        <CharString name="i">
          -385 21 34 callsubr
          102 115 hstem
          13 247 10 callsubr
          endchar
        </CharString>
        <CharString name="i.loclTRK">
          -23 callgsubr
          100 118 hstem
          21 246 vstem
          128 -21 callgsubr
          -128 -724 -60 callgsubr
        </CharString>
        <CharString name="iacute">
          -366 21 30 callsubr
          hstem
          21 328 vstem
          119 591 rmoveto
          99 hlineto
          131 -16 callsubr
          -124 hlineto
          -203 -14 callsubr
        </CharString>
        <CharString name="iacute_j.loclNLD">
          -107 -182 97 106 30 callsubr
          hstem
          21 613 vstem
          134 591 -94 callgsubr
          166 -132 -94 callgsubr
          -487 29 callsubr
          144 -708 -82 callsubr
        </CharString>
        <CharString name="ibreve">
          -23 callgsubr
          87 65 callgsubr
          40 82 hintmask 11011000
          185 593 -83 callsubr
          hintmask 11101000
          -47 callsubr
          hintmask 11011000
          -89 callgsubr
          -164 -593 -60 callgsubr
        </CharString>
        <CharString name="icircumflex">
          -23 callgsubr
          82 135 -63 63 hstemhm
          16 319 hintmask 11101000
          16 588 rmoveto
          110 hlineto
          hintmask 11011000
          66 72 rlineto
          hintmask 11101000
          -89 callsubr
          -109 hlineto
          -123 -14 callsubr
        </CharString>
        <CharString name="idieresis">
          -23 callgsubr
          107 110 hstem
          21 337 vstem
          29 613 -99 callsubr
          -229 -14 callsubr
        </CharString>
        <CharString name="igrave">
          -366 21 30 callsubr
          hstem
          21 218 vstem
          147 591 rmoveto
          92 hlineto
          -59 -73 callgsubr
          rlineto
          -41 -720 -60 callgsubr
        </CharString>
        <CharString name="ij">
          -126 -182 97 106 34 callsubr
          102 115 hstem
          13 506 vstem
          120 5 callsubr
          239 -115 -43 callgsubr
          -386 29 callsubr
          133 -708 -82 callsubr
        </CharString>
        <CharString name="imacron">
          -23 callgsubr
          133 82 hstem
          21 329 vstem
          31 639 rmoveto
          305 hlineto
          14 82 rlineto
          -305 hlineto
          -24 -721 -60 callgsubr
        </CharString>
        <CharString name="infinity">
          69 139 80 157 80 hstem
          43 89 446 89 vstem
          173 139 rmoveto
          66 52 41 54 52 hvcurveto
          -72 42 55 -23 55 hhcurveto
          93 79 76 111 79 -54 51 -78 -72 -53 -54 -39 -39 hvcurveto
          56 -35 -45 37 -72 hhcurveto
          -100 -76 -81 -104 -80 53 -52 77 hvcurveto
          16 80 rmoveto
          -34 -23 28 37 55 45 37 39 42 21 -25 -57 29 hvcurveto
          -38 -35 -41 -37 -43 hhcurveto
          308 hmoveto
          -37 -25 20 59 -33 hvcurveto
          51 51 30 27 38 hhcurveto
          35 22 -28 -37 -38 -30 -54 -51 hvcurveto
          endchar
        </CharString>
        <CharString name="integral">
          -370 -141 63 875 62 hstem
          -62 406 vstem
          -62 -141 rmoveto
          122 57 17 95 17 hvcurveto
          26 150 81 619 0 vvcurveto
          43 8 38 14 45 hhcurveto
          12 62 rlineto
          -122 -60 -18 -94 -16 hvcurveto
          -27 -151 -81 -616 0 vvcurveto
          -44 -8 -35 -14 -45 hhcurveto
          endchar
        </CharString>
        <CharString name="integralbt">
          -40 -250 62 hstem
          82 359 vstem
          82 -250 rmoveto
          120 60 18 94 17 hvcurveto
          14 80 78 477 70 440 rrcurveto
          -100 hlineto
          -76 -474 -81 -516 0 vvcurveto
          -43 -8 -38 -14 -45 hhcurveto
          endchar
        </CharString>
        <CharString name="integraltp">
          -40 797 62 hstem
          162 359 vstem
          162 -250 rmoveto
          100 hlineto
          76 474 81 516 0 vvcurveto
          43 8 38 14 45 hhcurveto
          11 62 rlineto
          -120 -60 -18 -94 -17 hvcurveto
          -14 -80 -79 -477 -69 -440 rrcurveto
          endchar
        </CharString>
        <CharString name="intersection">
          77 21 -21 594 82 hstem
          562 86 vstem
          40 hmoveto
          86 hlineto
          72 410 rlineto
          106 18 89 78 109 hhcurveto
          90 58 -62 -87 -11 -1 -12 -2 -12 hvcurveto
          -72 -410 rlineto
          85 hlineto
          72 410 rlineto
          3 17 1 15 16 vvcurveto
          126 -98 92 -141 -139 -130 -107 -159 -28 vhcurveto
          endchar
        </CharString>
        <CharString name="iogonek">
          -366 -190 68 143 34 callsubr
          100 118 hstem
          -47 102 vstem
          149 724 rmoveto
          -21 -118 rlineto
          118 hlineto
          21 118 rlineto
          -246 -724 rmoveto
          1 hlineto
          -34 -26 -35 -35 -53 -38 callsubr
          39 -49 callgsubr
          endchar
        </CharString>
        <CharString name="itilde">
          -23 callgsubr
          101 76 callsubr
          5 352 hintmask 11101000
          5 41 callsubr
          hintmask 11011000
          26 8 13 9 17 hhcurveto
          hintmask 11101000
          48 36 -35 52 hhcurveto
          hintmask 11011000
          65 35 54 62 11 hvcurveto
          -68 hlineto
          hintmask 11101000
          -26 -8 -13 -9 -18 -48 -35 35 -53 hhcurveto
          -64 -35 -54 -62 -10 hvcurveto
          16 -607 -60 callgsubr
        </CharString>
        <CharString name="j">
          -385 -182 97 611 -20 102 115 hstem
          -109 369 vstem
          120 5 callsubr
          -160 -905 -82 callsubr
        </CharString>
        <CharString name="jcircumflex">
          -385 -182 97 611 -20 82 135 -63 63 hstemhm
          -109 433 hintmask 11101000
          4 588 -49 callsubr
          hintmask 11011000
          65 72 rlineto
          hintmask 11101000
          44 -72 rlineto
          100 hlineto
          -82 135 rlineto
          -109 hlineto
          -153 -905 -82 callsubr
        </CharString>
        <CharString name="k">
          -107 21 34 callsubr
          217 -39 callgsubr
          74 423 -81 callsubr
          endchar
        </CharString>
        <CharString name="kcommaaccent">
          -107 -142 96 67 34 callsubr
          217 -39 callgsubr
          74 423 -81 callsubr
          -953 vmoveto
          64 hlineto
          -67 callsubr
        </CharString>
        <CharString name="kgreenlandic">
          -107 21 -21 526 -39 callgsubr
          39 226 -81 callsubr
          endchar
        </CharString>
        <CharString name="l">
          75 callgsubr
          hstem
          13 247 vstem
          13 70 callsubr
          79 callsubr
        </CharString>
        <CharString name="lacute">
          75 callgsubr
          48 132 hstemhm
          13 376 hintmask 00000000
          hintmask 11110000
          159 751 -94 callgsubr
          -250 -883 -20 callsubr
          hintmask 11010000
          79 callsubr
        </CharString>
        <CharString name="lcaron">
          -291 21 -21 571 115 -115 152 hstemhm
          13 418 hintmask 11010000
          13 70 callsubr
          hintmask 10110000
          -29 callsubr
          130 -264 rmoveto
          63 hlineto
          80 123 rlineto
          hintmask 11010000
          18 104 -81 callsubr
          -20 -115 49 callsubr
        </CharString>
        <CharString name="lcommaaccent">
          -385 -142 96 67 -21 723 -20 hstem
          -27 287 vstem
          13 70 callsubr
          -29 callsubr
          -167 -953 rmoveto
          64 hlineto
          -67 callsubr
        </CharString>
        <CharString name="ldot">
          -305 21 -21 294 127 302 -20 hstem
          13 368 vstem
          13 70 callsubr
          -29 callsubr
          94 -429 rmoveto
          124 13 callsubr
          -124 hlineto
          endchar
        </CharString>
        <CharString name="less">
          -60 3 513 hstem
          39 530 vstem
          479 3 rmoveto
          18 104 -353 149 406 148 19 112 -508 -197 -22 -120 rlineto
          endchar
        </CharString>
        <CharString name="lessequal">
          -95 0 97 hstem
          -17 584 vstem
          476 123 rmoveto
          19 105 -353 148 406 148 19 112 -509 -197 -21 -120 rlineto
          -54 -319 33 callgsubr
          -473 hlineto
          endchar
        </CharString>
        <CharString name="lira">
          -88 0 101 96 85 61 85 172 43 callsubr
          29 96 rlineto
          161 hlineto
          14 85 rlineto
          -160 hlineto
          11 61 rlineto
          161 hlineto
          15 85 rlineto
          -160 hlineto
          15 85 3 callsubr
          -81 -61 -138 -24 vhcurveto
          -12 -71 rlineto
          -78 hlineto
          -15 -85 rlineto
          78 hlineto
          -11 -61 rlineto
          -78 hlineto
          -14 -85 rlineto
          77 hlineto
          -17 -96 rlineto
          -66 hlineto
          endchar
        </CharString>
        <CharString name="logicalnot">
          -60 358 96 hstem
          52 508 vstem
          421 194 rmoveto
          93 hlineto
          46 260 rlineto
          -490 hlineto
          -18 -96 rlineto
          398 hlineto
          endchar
        </CharString>
        <CharString name="longs">
          -366 -182 98 512 98 107 98 hstem
          -99 467 vstem
          -12 -182 rmoveto
          102 36 69 68 12 hvcurveto
          112 633 -75 callsubr
          -8 20 37 66 callgsubr
        </CharString>
        <CharString name="lozenge">
          -44 617 111 0 -20 hstemhm
          48 477 hintmask 01100000
          151 -133 -20 callsubr
          254 431 -102 430 -81 callsubr
          -255 -430 rlineto
          179 -320 rmoveto
          -67 310 rlineto
          hintmask 10100000
          187 329 67 -309 rlineto
          endchar
        </CharString>
        <CharString name="lslash">
          75 callgsubr
          hstem
          -17 307 vstem
          14 70 callsubr
          61 348 78 51 17 93 -78 -51 49 282 -81 callsubr
          -64 -368 -78 -51 -16 -93 77 50 rlineto
          endchar
        </CharString>
        <CharString name="m">
          226 31 callsubr
          hstemhm
          692 125 hintmask 11010000
          16 70 callsubr
          51 291 rlineto
          84 15 56 59 62 hhcurveto
          39 26 -17 -48 -13 -2 72 callsubr
          51 291 rlineto
          84 15 54 59 63 hhcurveto
          39 27 -17 -48 -13 -3 72 callsubr
          60 336 rlineto
          5 26 3 23 21 vvcurveto
          96 -57 36 -83 -68 -58 -36 -47 -41 vhcurveto
          -7 hlineto
          58 -17 -48 25 -64 hhcurveto
          -67 -54 -35 -48 -40 hvcurveto
          -7 hlineto
          hintmask 10110000
          71 -97 vlineto
          endchar
        </CharString>
        <CharString name="macron">
          -311 617 82 hstem
          3 320 vstem
          3 617 -59 callgsubr
          endchar
        </CharString>
        <CharString name="minus">
          -60 207 97 hstem
          41 489 vstem
          41 207 33 callgsubr
          -472 hlineto
          endchar
        </CharString>
        <CharString name="minute">
          -422 509 177 hstem
          75 185 vstem
          75 509 36 callgsubr
          endchar
        </CharString>
        <CharString name="multiply">
          -60 38 435 hstem
          49 485 vstem
          108 38 rmoveto
          176 148 119 -145 75 66 -120 144 176 149 -59 73 -176 -149 -119 145 -75 -66 120 -145 -176 -147 rlineto
          endchar
        </CharString>
        <CharString name="n">
          21 21 callgsubr
          hintmask 10110000
          16 70 callsubr
          50 283 rlineto
          hintmask 11010000
          -95 callsubr
          -69 -66 -37 -46 -38 vhcurveto
          -7 hlineto
          hintmask 10110000
          71 -97 vlineto
          endchar
        </CharString>
        <CharString name="nacute">
          31 callsubr
          85 132 26 callgsubr
          hintmask 10111000
          302 591 -94 callgsubr
          -390 -723 -20 callsubr
          50 283 rlineto
          hintmask 11011000
          -95 callsubr
          -69 -66 -37 -46 -38 vhcurveto
          -7 hlineto
          hintmask 10111000
          71 -97 vlineto
          endchar
        </CharString>
        <CharString name="nacute.loclPLK">
          31 callsubr
          85 132 26 callgsubr
          hintmask 10111000
          294 591 -51 callsubr
          -326 -723 -20 callsubr
          50 283 rlineto
          hintmask 11011000
          -95 callsubr
          -69 -66 -37 -46 -38 vhcurveto
          -7 hlineto
          hintmask 10111000
          71 -97 vlineto
          endchar
        </CharString>
        <CharString name="napostrophe">
          28 21 -21 434 104 -79 67 45 115 hstemhm
          493 125 hintmask 00000000
          hintmask 10111000
          25 459 rmoveto
          62 25 callgsubr
          45 hlineto
          6 -571 -20 callsubr
          50 283 rlineto
          hintmask 11011000
          -95 callsubr
          -69 -66 -37 -46 -38 vhcurveto
          -7 hlineto
          hintmask 10111000
          71 -97 vlineto
          endchar
        </CharString>
        <CharString name="ncaron">
          31 callsubr
          82 135 26 callgsubr
          hintmask 10111000
          299 588 -96 callsubr
          -201 -723 -20 callsubr
          50 283 rlineto
          hintmask 11011000
          -95 callsubr
          -69 -66 -37 -46 -38 vhcurveto
          -7 hlineto
          hintmask 10111000
          71 -97 vlineto
          endchar
        </CharString>
        <CharString name="ncommaaccent">
          -142 96 67 21 callgsubr
          hintmask 11011000
          16 70 callsubr
          50 283 rlineto
          hintmask 11101000
          -95 callsubr
          -69 -66 -37 -46 -38 vhcurveto
          -7 hlineto
          hintmask 11011000
          71 -97 vlineto
          41 -756 rmoveto
          64 hlineto
          -67 callsubr
        </CharString>
        <CharString name="nine">
          -88 -12 98 160 96 258 98 hstemhm
          28 122 -98 127 233 121 hintmask 00000000
          hintmask 11110100
          224 -12 rmoveto
          150 101 90 282 46 hvcurveto
          8 47 4 41 35 vvcurveto
          160 -83 55 -139 vhcurveto
          hintmask 11101100
          -140 -119 -108 -166 -107 57 -71 128 74 53 39 21 24 hvcurveto
          hintmask 11110100
          -135 -26 -33 -85 -101 hhcurveto
          -54 -24 28 51 11 2 12 2 14 hvcurveto
          -121 hlineto
          -3 -18 -2 -18 -17 vvcurveto
          -94 58 -67 138 vhcurveto
          hintmask 11101100
          46 354 rmoveto
          -65 -26 39 57 86 50 76 88 65 30 -40 -58 -91 -56 -69 -86 hvcurveto
          endchar
        </CharString>
        <CharString name="notequal">
          -95 99 97 115 98 hstem
          10 527 vstem
          68 25 rmoveto
          86 hlineto
          53 74 rlineto
          276 hlineto
          17 97 rlineto
          -225 hlineto
          83 115 rlineto
          162 hlineto
          17 98 rlineto
          -111 hlineto
          54 75 rlineto
          -86 hlineto
          -54 -75 rlineto
          -275 80 callgsubr
          223 hlineto
          -82 -115 rlineto
          -162 hlineto
          -17 -97 rlineto
          111 hlineto
          endchar
        </CharString>
        <CharString name="ntilde">
          31 callsubr
          101 81 -46 81 26 callgsubr
          hintmask 00000000
          hintmask 10110100
          191 41 callsubr
          hintmask 10101100
          -7 callgsubr
          hintmask 10110100
          48 35 -35 52 hhcurveto
          hintmask 10101100
          65 35 54 62 11 hvcurveto
          -68 hlineto
          hintmask 10110100
          -26 -8 -13 -9 -18 -48 -35 35 -53 hhcurveto
          -64 -35 -54 -62 -10 hvcurveto
          hintmask 11001100
          -175 -607 rmoveto
          -63 callgsubr
          -69 -66 -37 -46 -38 vhcurveto
          -7 hlineto
          hintmask 10101100
          71 -97 vlineto
          endchar
        </CharString>
        <CharString name="numbersign">
          -88 9 -21 181 96 135 96 202 -20 hstem
          9 535 vstem
          41 -12 rmoveto
          94 hlineto
          38 181 rlineto
          131 hlineto
          -37 -181 rlineto
          95 hlineto
          37 181 rlineto
          99 96 -79 hlineto
          28 135 rlineto
          97 96 -77 73 callsubr
          -132 73 callsubr
          -92 -96 71 hlineto
          -28 -135 rlineto
          -89 -96 69 hlineto
          115 96 rmoveto
          28 135 rlineto
          131 hlineto
          -28 -135 rlineto
          endchar
        </CharString>
        <CharString name="o">
          -26 callgsubr
          hstem
          -54 callgsubr
          vstem
          255 -12 -105 callgsubr
        </CharString>
        <CharString name="oacute">
          -26 callgsubr
          53 132 hstem
          -54 callgsubr
          vstem
          274 591 -94 callgsubr
          -123 -95 callgsubr
        </CharString>
        <CharString name="oacute.loclPLK">
          -26 callgsubr
          53 132 hstem
          -54 callgsubr
          vstem
          266 591 -51 callsubr
          -59 -95 callgsubr
        </CharString>
        <CharString name="obreve">
          -26 callgsubr
          55 65 callgsubr
          23 118 39 82 167 117 hintmask 11011110
          325 593 -83 callsubr
          hintmask 11101110
          -47 callsubr
          hintmask 11011110
          -89 callgsubr
          -70 -605 -105 callgsubr
        </CharString>
        <CharString name="ocircumflex">
          -26 callgsubr
          50 135 -63 63 hstemhm
          -54 callgsubr
          hintmask 11101100
          159 588 -49 callsubr
          hintmask 11011100
          65 72 rlineto
          hintmask 11101100
          -92 callsubr
          endchar
        </CharString>
        <CharString name="odieresis">
          -26 callgsubr
          75 110 hstem
          -54 callgsubr
          vstem
          175 613 -99 callsubr
          -141 -95 callgsubr
        </CharString>
        <CharString name="oe">
          300 -12 95 -95 98 148 85 121 98 -95 95 hstemhm
          19 125 275 112 256 120 hintmask 01110111
          259 -12 rmoveto
          82 61 31 50 43 hvcurveto
          -56 38 66 -25 96 hhcurveto
          121 97 64 callsubr
          hintmask 10110111
          -70 -12 -47 -31 -66 hhcurveto
          -77 -33 35 73 13 0 14 3 16 hvcurveto
          359 hlineto
          6 36 rlineto
          6 28 2 25 24 vvcurveto
          129 -72 62 -142 -84 -63 -32 -50 -45 vhcurveto
          56 -38 -67 26 -93 hhcurveto
          -212 -72 -178 -171 hvcurveto
          hintmask 01110111
          -137 81 -64 159 vhcurveto
          292 331 rmoveto
          hintmask 01101111
          81 22 46 43 77 hhcurveto
          55 36 -26 -63 -10 -1 -13 -2 -12 hvcurveto
          -531 -233 rmoveto
          -76 -33 37 75 20 1 22 6 33 hvcurveto
          hintmask 01110111
          100 20 42 67 95 hhcurveto
          77 34 -37 -76 -21 -2 -22 -6 -34 hvcurveto
          hintmask 01101111
          -99 -17 -46 -65 -95 hhcurveto
          endchar
        </CharString>
        <CharString name="ogonek">
          -311 -182 68 -68 194 hstemhm
          72 102 hintmask 10100000
          162 -7 callsubr
        </CharString>
        <CharString name="ograve">
          -26 callgsubr
          53 132 hstem
          -54 callgsubr
          vstem
          280 591 -78 callsubr
          60 -732 -105 callgsubr
        </CharString>
        <CharString name="ohorn">
          -26 callgsubr
          21 127 hstemhm
          -54 callgsubr
          hintmask 00000000
          hintmask 11111000
          536 686 -56 callgsubr
          hintmask 11011000
          -82 callgsubr
          hintmask 11111000
          -69 callgsubr
          hintmask 11011000
          121 16 51 55 94 hhcurveto
          78 44 -42 -72 1 hvcurveto
          hintmask 11111000
          39 callgsubr
        </CharString>
        <CharString name="ohungarumlaut">
          -26 callgsubr
          53 132 hstem
          -54 callgsubr
          vstem
          193 591 rmoveto
          -52 callsubr
          -200 -95 callgsubr
        </CharString>
        <CharString name="omacron">
          -26 callgsubr
          79 82 hstem
          -54 callgsubr
          vstem
          178 617 -59 callgsubr
          62 -711 -105 callgsubr
        </CharString>
        <CharString name="one">
          -88 0 98 436 74 78 -20 hstem
          28 457 vstem
          28 hmoveto
          439 78 callgsubr
          -153 hlineto
          103 588 rlineto
          -58 hlineto
          -76 -39 -106 -33 -61 -6 -13 -74 rcurveline
          168 hlineto
          -77 -436 rlineto
          -167 hlineto
          endchar
        </CharString>
        <CharString name="oneeighth">
          45 callsubr
          -32 68 200 49 40 -20 32 -20 hstemhm
          496 79 -41 76 73 76 -56 77 hintmask 1101101011000000
          55 -12 rmoveto
          91 hlineto
          671 710 rlineto
          -91 hlineto
          -671 -369 rmoveto
          236 hlineto
          12 68 rlineto
          -76 hlineto
          hintmask 1101110101000000
          51 289 18 callgsubr
          -200 rlineto
          -84 hlineto
          551 -409 64 callgsubr
          -27 16 hvcurveto
          hintmask 1110101010100000
          39 22 22 33 36 vvcurveto
          51 -37 39 -78 -80 -51 -53 -61 -26 11 -25 22 -16 vhcurveto
          hintmask 1101101101000000
          -50 -20 -21 -37 -43 vvcurveto
          hintmask 1101110101000000
          -53 35 -39 87 vhcurveto
          hintmask 1110101010100000
          30 222 rmoveto
          -25 -13 11 22 34 21 20 32 25 15 -12 -22 -34 -26 -19 -29 hvcurveto
          hintmask 1101101101000000
          -28 -159 rmoveto
          -30 56 callgsubr
          -34 hvcurveto
          endchar
        </CharString>
        <CharString name="onehalf">
          190 0 68 -59 -21 315 64 -38 51 callsubr
          523 76 101 77 hintmask 0000000000000000
          hintmask 0101101010000000
          46 -12 12 callsubr
          -662 -369 rmoveto
          236 hlineto
          12 69 rlineto
          -76 hlineto
          hintmask 1001110010000000
          51 288 18 callgsubr
          -199 rlineto
          -84 hlineto
          409 -398 rmoveto
          255 hlineto
          12 68 rlineto
          -158 hlineto
          hintmask 1010101110000000
          43 44 149 48 114 vvcurveto
          47 -26 46 -84 -77 14 callsubr
          30 9 -18 -17 -85 -197 -33 -22 -125 hvcurveto
          endchar
        </CharString>
        <CharString name="onequarter">
          190 9 -21 87 64 190 51 callsubr
          44 761 hintmask 11100110
          44 -12 12 callsubr
          -662 -369 rmoveto
          236 hlineto
          12 69 rlineto
          -76 hlineto
          hintmask 11111010
          51 288 18 callgsubr
          -199 rlineto
          -85 hlineto
          546 -397 9 callsubr
          71 101 38 44 callgsubr
        </CharString>
        <CharString name="ordfeminine">
          -274 389 68 213 20 -20 66 -8 -20 hstemhm
          59 80 hintmask 10101000
          341 468 rmoveto
          hintmask 11011000
          5 21 106 26 149 vhcurveto
          -64 hlineto
          -20 -38 rlineto
          -4 hlineto
          hintmask 10101000
          31 -17 -28 15 -44 hhcurveto
          -100 -52 -113 -107 -85 43 -42 64 38 37 19 36 23 hvcurveto
          3 hlineto
          -35 22 -20 35 22 16 6 4 9 vhcurveto
          9 52 rlineto
          -21 hlineto
          -10 -8 5 12 hvcurveto
          -149 -11 rmoveto
          -37 -16 22 41 65 23 85 68 38 18 -23 -43 -46 -24 -101 -70 hvcurveto
          endchar
        </CharString>
        <CharString name="ordmasculine">
          -279 389 65 218 64 hstem
          59 80 173 81 vstem
          211 389 rmoveto
          135 47 111 108 88 -52 40 -102 -135 -45 -112 -108 -87 51 -40 101 hvcurveto
          -3 65 rmoveto
          -47 -22 22 46 13 1 13 4 20 hvcurveto
          62 11 28 42 59 hhcurveto
          48 22 -23 -46 -12 -1 -13 -4 -19 hvcurveto
          -63 -9 -29 -42 -61 hhcurveto
          endchar
        </CharString>
        <CharString name="orthogonal">
          335 0 81 hstem
          128 640 vstem
          128 hmoveto
          625 hlineto
          15 81 rlineto
          -542 hlineto
          97 544 rlineto
          -84 hlineto
          endchar
        </CharString>
        <CharString name="oslash">
          -33 -12 98 354 98 hstem
          27 125 282 125 vstem
          -12 -49 -55 callgsubr
        </CharString>
        <CharString name="oslashacute">
          -33 -12 98 354 98 53 132 hstem
          27 125 282 125 vstem
          296 591 -94 callgsubr
          -412 -772 -55 callgsubr
        </CharString>
        <CharString name="otilde">
          -26 callgsubr
          69 76 callsubr
          -54 callgsubr
          hintmask 00000000
          hintmask 11101100
          163 41 callsubr
          hintmask 11011100
          -7 callgsubr
          hintmask 11101100
          48 35 -35 52 hhcurveto
          hintmask 11011100
          65 35 54 62 11 hvcurveto
          -68 hlineto
          hintmask 11101100
          -26 -8 -13 -9 -18 -48 -35 35 -53 hhcurveto
          -64 -35 -54 -62 -10 hvcurveto
          hintmask 11011100
          92 -619 -105 callgsubr
        </CharString>
        <CharString name="p">
          -152 -21 161 100 347 91 -91 103 hstemhm
          426 125 hintmask 11011000
          15 callsubr
          -70 63 -116 -61 -57 -30 -52 -40 hvcurveto
          -7 hlineto
          hintmask 11101000
          70 -97 vlineto
          167 -438 rmoveto
          -67 -32 38 71 hvcurveto
          hintmask 11011000
          73 callgsubr
          vhcurveto
          hintmask 11101000
          -101 -35 -137 -121 vhcurveto
          endchar
        </CharString>
        <CharString name="paragraph">
          -95 625 61 hstem
          41 553 vstem
          148 -168 rmoveto
          84 hlineto
          140 793 rlineto
          66 hlineto
          -140 -793 rlineto
          84 hlineto
          140 793 rlineto
          61 hlineto
          11 61 rlineto
          -286 hlineto
          -155 -112 -97 -162 -117 83 -57 98 hvcurveto
          endchar
        </CharString>
        <CharString name="parenleft">
          -311 736 -20 hstem
          43 113 vstem
          146 -157 rmoveto
          78 hlineto
          -42 89 -26 116 117 vvcurveto
          202 96 209 129 160 vhcurveto
          -81 hlineto
          -161 -150 -96 -201 -205 vvcurveto
          -124 35 -117 68 -96 vhcurveto
          endchar
        </CharString>
        <CharString name="parenright">
          -311 736 -20 hstem
          155 113 vstem
          -69 -157 rmoveto
          80 hlineto
          160 150 97 201 205 vvcurveto
          124 -35 117 -68 96 vhcurveto
          -78 hlineto
          42 -89 26 -115 -116 vvcurveto
          -201 -97 -212 -127 -160 vhcurveto
          endchar
        </CharString>
        <CharString name="partialdiff">
          -150 -12 92 282 87 197 89 hstem
          8 112 242 106 vstem
          169 -12 rmoveto
          139 103 149 207 40 hvcurveto
          11 51 6 52 50 vvcurveto
          167 -89 71 -101 -50 -38 -13 -16 -30 vhcurveto
          -16 -94 rlineto
          18 28 36 16 47 hhcurveto
          73 34 -54 -108 -30 -3 -48 -11 -23 hvcurveto
          -4 hlineto
          24 -9 -35 42 -72 hhcurveto
          -96 -124 -115 -184 -91 50 -71 111 hvcurveto
          6 92 rmoveto
          -36 -19 31 48 103 68 100 61 49 23 -42 -34 3 hvcurveto
          -106 -26 -58 -100 -65 hhcurveto
          endchar
        </CharString>
        <CharString name="percent">
          245 -12 73 -40 -21 276 73 -12 73 215 73 -12 -20 hstemhm
          73 96 144 95 70 96 144 95 hintmask 1001101111000000
          224 337 rmoveto
          101 59 55 122 20 hvcurveto
          3 20 1 18 17 vvcurveto
          94 -54 35 -95 -99 -61 -52 -121 -20 vhcurveto
          -4 -22 -2 -21 -18 vvcurveto
          -93 56 -34 95 vhcurveto
          hintmask 0101011111000000
          -139 -337 rmoveto
          97 hlineto
          624 -21 callsubr
          -98 hlineto
          -485 -276 rmoveto
          -39 -15 22 42 hvcurveto
          hintmask 1001101111000000
          14 1 15 5 26 vhcurveto
          54 11 20 42 52 74 callgsubr
          hintmask 0101011111000000
          -55 -11 -19 -43 -54 hhcurveto
          hintmask 1010101111000000
          406 -422 rmoveto
          98 59 51 119 21 hvcurveto
          5 22 1 21 19 vvcurveto
          94 -54 35 -96 -97 -60 -50 -119 -21 vhcurveto
          -4 -23 -3 -22 -20 vvcurveto
          -93 55 -34 96 vhcurveto
          -1 73 rmoveto
          -39 -15 22 42 13 1 15 4 25 hvcurveto
          55 11 20 43 53 74 callgsubr
          -55 -11 -19 -43 -54 hhcurveto
          endchar
        </CharString>
        <CharString name="period">
          -366 0 127 hstem
          22 147 vstem
          22 hmoveto
          124 13 callsubr
          -124 hlineto
          endchar
        </CharString>
        <CharString name="periodcentered">
          -311 294 127 hstem
          100 147 vstem
          100 294 rmoveto
          124 13 callsubr
          -124 hlineto
          endchar
        </CharString>
        <CharString name="perthousand">
          356 -11 73 -41 -21 275 73 -9 73 213 73 -12 -20 hstemhm
          42 93 111 94 -1 94 110 94 23 93 111 94 hintmask 0000000000000000
          hintmask 0101101100000000
          174 339 rmoveto
          88 52 53 120 20 hvcurveto
          4 23 2 20 19 vvcurveto
          90 -48 34 -84 -85 -53 -49 -118 -21 vhcurveto
          -4 -25 -3 -24 -22 vvcurveto
          -88 48 -33 84 vhcurveto
          -126 -339 rmoveto
          85 hlineto
          hintmask 0001011000000000
          498 -21 callsubr
          -86 hlineto
          -372 -274 rmoveto
          -27 -11 18 37 hvcurveto
          hintmask 0001101100000000
          15 1 18 6 29 vhcurveto
          55 11 16 41 39 hhcurveto
          27 11 -19 -37 -14 -2 -16 -4 -27 hvcurveto
          hintmask 0001011000000000
          -57 -9 -16 -43 -42 hhcurveto
          hintmask 1010000011000000
          298 -423 rmoveto
          90 52 54 122 19 hvcurveto
          3 22 2 19 18 vvcurveto
          90 -48 34 -84 -86 -53 -51 -119 -20 vhcurveto
          -4 -25 -3 -22 -21 vvcurveto
          -88 49 -33 83 vhcurveto
          hintmask 1010000010110000
          321 hmoveto
          86 53 50 119 21 hvcurveto
          4 24 2 22 20 vvcurveto
          90 -48 34 -84 -88 -53 -54 -122 -19 vhcurveto
          -4 -22 -2 -21 -19 vvcurveto
          -88 48 -33 84 vhcurveto
          -322 73 rmoveto
          -26 -11 18 37 15 1 18 6 29 hvcurveto
          hintmask 0010000001000000
          55 10 16 41 39 hhcurveto
          28 10 -19 -37 -13 -1 -16 -5 -27 hvcurveto
          hintmask 1010000010110000
          -57 -8 -17 -44 -42 hhcurveto
          321 hmoveto
          -26 -12 18 37 14 1 16 6 28 hvcurveto
          56 10 15 44 41 hhcurveto
          27 11 -19 -37 -14 -1 -17 -5 -28 hvcurveto
          -56 -10 -16 -42 -41 hhcurveto
          endchar
        </CharString>
        <CharString name="peseta">
          450 -12 94 -61 -21 62 24 159 109 74 98 -83 95 39 109 hstemhm
          463 121 50 113 -63 122 100 123 -87 115 hintmask 1001101101100000
          563 -12 rmoveto
          25 30 7 9 18 hvcurveto
          hintmask 0011101101100000
          10 58 rlineto
          hintmask 1001011101100000
          -46 23 57 -28 91 hhcurveto
          107 105 49 138 hvcurveto
          168 -223 -49 88 vvcurveto
          31 24 30 52 vhcurveto
          hintmask 1001011101010000
          40 20 -20 -31 -5 0 -6 -2 -8 hvcurveto
          110 hlineto
          2 6 5 24 16 vvcurveto
          73 -65 46 -105 vhcurveto
          hintmask 0101101101100000
          -31 -27 -4 -8 -26 hvcurveto
          -148 hlineto
          33 147 rlineto
          -122 hlineto
          -25 -147 rlineto
          -34 hlineto
          103 -12 -61 57 -138 hhcurveto
          -164 hlineto
          -121 -686 rlineto
          127 hlineto
          43 245 rlineto
          56 hlineto
          145 79 70 113 33 hvcurveto
          27 hlineto
          -50 -285 rlineto
          hintmask 1001101101100000
          -5 -24 -3 -26 -11 vvcurveto
          -51 25 -43 75 vhcurveto
          -363 366 rmoveto
          39 223 rlineto
          46 hlineto
          64 32 -30 -52 -86 -56 -55 -73 hvcurveto
          hintmask 1001101110100000
          568 -272 rmoveto
          -38 -35 16 45 hvcurveto
          hintmask 0011101110100000
          5 1 4 3 14 vhcurveto
          -110 hlineto
          -4 -12 -3 -21 -13 vvcurveto
          -12 2 -11 3 -11 vhcurveto
          -18 hlineto
          -25 -12 11 20 4 1 13 4 20 hvcurveto
          hintmask 1001101101100000
          48 274 rlineto
          65 hlineto
          -10 -18 -8 -25 -21 -164 222 49 -98 vvcurveto
          hintmask 1001101110100000
          -50 -47 -19 -39 vhcurveto
          endchar
        </CharString>
        <CharString name="pi">
          96 21 -21 428 98 hstem
          437 120 vstem
          44 hmoveto
          125 hlineto
          55 84 71 222 31 122 rrcurveto
          173 hlineto
          -50 -281 rlineto
          -8 -48 -4 -37 -26 vvcurveto
          -17 2 -13 3 -6 vhcurveto
          118 hlineto
          -2 9 -1 11 13 vvcurveto
          28 5 39 10 56 vhcurveto
          47 272 rlineto
          102 hlineto
          27 98 rlineto
          -486 hlineto
          -104 -62 -11 -19 -34 hvcurveto
          1 -81 rlineto
          9 29 33 4 75 hhcurveto
          -25 -122 -71 -205 -60 -101 rrcurveto
          endchar
        </CharString>
        <CharString name="plus">
          -60 21 -21 206 98 hstem
          43 490 vstem
          192 hmoveto
          100 hlineto
          37 206 rlineto
          186 78 callgsubr
          -186 hlineto
          36 207 rlineto
          -100 hlineto
          -36 -207 rlineto
          -186 hlineto
          -18 -98 rlineto
          186 hlineto
          endchar
        </CharString>
        <CharString name="plusminus">
          -95 0 97 251 97 hstem
          -19 551 vstem
          192 141 rmoveto
          100 hlineto
          36 207 rlineto
          186 hlineto
          18 97 rlineto
          -187 hlineto
          37 207 rlineto
          -100 hlineto
          -37 -207 rlineto
          -185 hlineto
          -18 -97 rlineto
          185 hlineto
          -246 -348 33 callgsubr
          -471 hlineto
          endchar
        </CharString>
        <CharString name="product">
          179 614 109 hstem
          51 799 vstem
          51 -128 rmoveto
          128 hlineto
          130 742 rlineto
          300 hlineto
          -131 -742 rlineto
          127 hlineto
          131 742 rlineto
          94 25 callsubr
          -741 hlineto
          -20 -109 rlineto
          93 hlineto
          endchar
        </CharString>
        <CharString name="q">
          -152 -21 161 -44 callgsubr
          hstemhm
          19 124 hintmask 11101000
          315 -173 -20 callsubr
          hintmask 11011000
          123 699 rlineto
          -99 hlineto
          hintmask 11101000
          -22 -70 rlineto
          -7 hlineto
          55 -26 -57 27 -74 hhcurveto
          -175 -79 -182 -167 -138 71 -63 105 66 52 26 47 37 hvcurveto
          6 hlineto
          -116 30 rmoveto
          -67 -30 34 71 103 38 139 120 65 32 -39 -74 -94 -43 -140 -115 hvcurveto
          endchar
        </CharString>
        <CharString name="question">
          0 127 465 106 hstem
          73 122 228 133 vstem
          201 191 rmoveto
          112 hlineto
          6 33 rlineto
          20 113 217 13 188 vvcurveto
          104 -79 56 -135 -158 -109 -98 -141 -2 vhcurveto
          122 hlineto
          44 29 89 109 76 14 -38 -30 -112 -185 -3 -29 -170 vhcurveto
          -44 -239 20 callsubr
          endchar
        </CharString>
        <CharString name="questiondown">
          -33 -172 106 465 127 hstem
          44 133 228 122 vstem
          288 399 20 callsubr
          -52 -698 rmoveto
          159 109 98 141 1 hvcurveto
          -122 hlineto
          -44 -28 -89 -109 -77 -14 38 30 vhcurveto
          1 112 185 3 28 170 8 48 rcurveline
          -112 hlineto
          -6 -33 rlineto
          -20 -113 -217 -13 -188 vvcurveto
          -104 79 -56 135 vhcurveto
          endchar
        </CharString>
        <CharString name="quotedbl">
          -211 407 279 hstem
          87 86 113 87 vstem
          87 407 rmoveto
          86 hlineto
          46 28 callsubr
          199 -132 rmoveto
          87 hlineto
          45 28 callsubr
          endchar
        </CharString>
        <CharString name="quotedblbase">
          -202 0 127 hstem
          -4 372 vstem
          -4 -16 callgsubr
          49 hlineto
          123 -148 -17 callsubr
          endchar
        </CharString>
        <CharString name="quotedblleft">
          -202 411 127 148 -20 hstem
          69 372 vstem
          69 411 rmoveto
          124 13 callsubr
          -50 hlineto
          76 148 rlineto
          -65 hlineto
          -88 -159 rlineto
          178 -116 rmoveto
          125 13 callsubr
          -50 hlineto
          76 148 rlineto
          -65 hlineto
          -89 -159 rlineto
          endchar
        </CharString>
        <CharString name="quotedblright">
          -202 559 127 hstem
          73 372 vstem
          73 411 -17 callsubr
          123 -16 callgsubr
          50 hlineto
          endchar
        </CharString>
        <CharString name="quoteleft">
          -385 411 127 148 -20 hstem
          83 173 vstem
          83 411 rmoveto
          125 hlineto
          22 127 rlineto
          -49 hlineto
          75 148 rlineto
          -65 hlineto
          -88 -159 rlineto
          endchar
        </CharString>
        <CharString name="quotereversed">
          -385 559 127 hstem
          93 146 vstem
          126 414 rmoveto
          65 hlineto
          -24 145 rlineto
          49 13 callsubr
          -125 hlineto
          -21 -116 rlineto
          endchar
        </CharString>
        <CharString name="quoteright">
          -385 559 127 hstem
          73 174 vstem
          73 411 -17 callsubr
          endchar
        </CharString>
        <CharString name="quotesinglbase">
          -385 0 127 hstem
          -4 173 vstem
          -4 -16 callgsubr
          49 hlineto
          endchar
        </CharString>
        <CharString name="quotesingle">
          -422 407 279 hstemhm
          87 86 hintmask 00000000
          hintmask 11000000
          87 407 rmoveto
          86 hlineto
          46 28 callsubr
          endchar
        </CharString>
        <CharString name="r">
          -12 callgsubr
          hstemhm
          16 378 hintmask 10101000
          16 hmoveto
          18 callsubr
          hintmask 10011000
          19 113 rlineto
          hintmask 10101000
          0 -20 9 -32 -68 -36 -45 -50 -27 vhcurveto
          -7 hlineto
          hintmask 11001000
          2 83 rlineto
          -97 hlineto
          endchar
        </CharString>
        <CharString name="racute">
          -12 callgsubr
          82 132 hstemhm
          16 405 hintmask 10101100
          191 591 -94 callgsubr
          -279 -723 -64 callsubr
        </CharString>
        <CharString name="radical">
          -95 -148 1005 hstem
          24 612 vstem
          200 -148 rmoveto
          97 hlineto
          339 1005 rlineto
          -76 hlineto
          -283 -853 -5 33 -6 34 -6 35 rlinecurve
          -55 288 -181 -71 12 -73 77 27 rlineto
          endchar
        </CharString>
        <CharString name="rcaron">
          -12 callgsubr
          79 135 hstemhm
          16 409 hintmask 10101100
          188 588 -96 callsubr
          -90 -723 -64 callsubr
        </CharString>
        <CharString name="rcommaaccent">
          -274 -142 96 67 -9 callgsubr
          hstemhm
          -24 418 -9 callsubr
          -133 -756 rmoveto
          64 hlineto
          -67 callsubr
        </CharString>
        <CharString name="registered">
          93 -12 57 250 64 129 62 91 57 hstem
          13 59 149 75 169 76 123 -38 callgsubr
          -147 93 rmoveto
          75 157 103 hlineto
          79 -157 rlineto
          80 hlineto
          -87 170 rlineto
          47 21 23 42 54 vvcurveto
          74 -43 51 -85 vhcurveto
          -192 hlineto
          75 -191 rmoveto
          129 107 vlineto
          39 23 -22 -41 -42 -26 -24 -36 hvcurveto
          endchar
        </CharString>
        <CharString name="revlogicalnot">
          -60 358 96 hstem
          26 537 vstem
          26 194 rmoveto
          93 hlineto
          29 164 rlineto
          398 hlineto
          17 96 rlineto
          -490 hlineto
          endchar
        </CharString>
        <CharString name="ring">
          -311 559 53 93 53 hstem
          67 54 94 53 vstem
          155 559 -53 callgsubr
          endchar
        </CharString>
        <CharString name="s">
          68 callgsubr
          -36 callsubr
          hintmask 00000000
          hintmask 11101000
          228 -12 rmoveto
          126 118 50 139 hvcurveto
          hintmask 11011000
          171 -289 -51 88 vvcurveto
          30 33 28 74 vhcurveto
          hintmask 11010100
          58 29 -21 -34 -5 -1 -7 -1 -3 hvcurveto
          117 hlineto
          1 2 6 21 20 vvcurveto
          74 -81 48 -126 -131 -103 -62 -115 vhcurveto
          hintmask 11011000
          -165 289 50 -98 vvcurveto
          -48 -62 -18 -56 vhcurveto
          hintmask 11101000
          23 callgsubr
        </CharString>
        <CharString name="sacute">
          68 callgsubr
          53 132 -36 callsubr
          hintmask 11101100
          260 591 -94 callgsubr
          hintmask 11110100
          -136 -735 -90 callgsubr
          endchar
        </CharString>
        <CharString name="sacute.loclPLK">
          68 callgsubr
          53 132 -36 callsubr
          hintmask 11101100
          252 591 -51 callsubr
          hintmask 11110100
          -72 -735 -90 callgsubr
          endchar
        </CharString>
        <CharString name="scaron">
          68 callgsubr
          50 135 -36 callsubr
          hintmask 11101100
          257 588 -96 callsubr
          hintmask 11110100
          53 -735 -90 callgsubr
          endchar
        </CharString>
        <CharString name="scedilla">
          -107 32 callsubr
          45 -21 453 95 hstemhm
          6 120 -68 125 53 96 15 125 -95 122 hintmask 0000000000000000
          hintmask 1001101001000000
          492 373 rmoveto
          1 2 6 21 20 vvcurveto
          74 -81 48 -126 -131 -103 -62 -115 vhcurveto
          hintmask 1011101010000000
          -165 289 50 -98 vvcurveto
          -48 -62 -18 -56 vhcurveto
          hintmask 1011110010000000
          -54 -49 17 48 3 1 9 3 7 hvcurveto
          -117 hlineto
          0 -7 -19 -22 vvcurveto
          hintmask 1001110010000000
          -70 57 -53 115 -12 vhcurveto
          hintmask 1011101110000000
          -23 -67 -24 callsubr
          hintmask 0101101010000000
          -9 -49 rlineto
          hintmask 1011101110000000
          -5 callsubr
          8 23 rlineto
          hintmask 1001101010000000
          115 7 102 52 129 171 -289 -51 88 vvcurveto
          30 33 28 74 vhcurveto
          hintmask 1001101001000000
          58 29 -21 -34 -5 -1 -7 -1 -3 hvcurveto
          endchar
        </CharString>
        <CharString name="scircumflex">
          68 callgsubr
          50 135 -63 63 -36 callsubr
          hintmask 11100110
          145 588 -49 callsubr
          hintmask 11010110
          65 72 rlineto
          hintmask 11101010
          -99 callgsubr
          -46 -735 rmoveto
          126 118 50 139 hvcurveto
          hintmask 11100110
          171 -289 -51 88 vvcurveto
          30 33 28 74 vhcurveto
          hintmask 11100101
          58 29 -21 -34 -5 -1 -7 -1 -3 hvcurveto
          117 hlineto
          1 2 6 21 20 vvcurveto
          74 -81 48 -126 -131 -103 -62 -115 vhcurveto
          hintmask 11100110
          -165 289 50 -98 vvcurveto
          -48 -62 -18 -56 vhcurveto
          hintmask 11101010
          23 callgsubr
        </CharString>
        <CharString name="scommaaccent">
          -107 -142 96 34 94 361 95 -36 callsubr
          hintmask 00000000
          hintmask 11110100
          228 -12 -90 callgsubr
          -106 -218 rmoveto
          64 hlineto
          hintmask 11101100
          -67 callsubr
        </CharString>
        <CharString name="second">
          -208 509 177 hstem
          75 367 vstem
          75 509 36 callgsubr
          119 -177 36 callgsubr
          endchar
        </CharString>
        <CharString name="section">
          -88 -182 94 690 96 hstemhm
          -3 128 -89 123 -61 126 96 125 -61 122 -88 128 hintmask 00000000
          hintmask 11100100
          204 -182 rmoveto
          136 105 63 118 44 -21 32 -31 26 hvcurveto
          hintmask 11001010
          67 34 46 55 66 173 -282 0 101 vvcurveto
          31 28 41 82 vhcurveto
          hintmask 11001001
          58 26 -21 -32 -4 0 -5 -1 -7 hvcurveto
          122 hlineto
          3 7 4 20 15 vvcurveto
          75 -81 48 -125 -138 -104 -62 -115 -47 21 -34 31 -25 vhcurveto
          hintmask 11010100
          -69 -38 -45 -55 -67 -170 284 0 -100 vvcurveto
          -30 -29 -43 -81 vhcurveto
          hintmask 11100010
          -59 -26 21 34 4 0 4 1 8 hvcurveto
          -122 hlineto
          -2 -5 -5 -22 -14 vvcurveto
          hintmask 11100100
          -76 80 -48 127 vhcurveto
          hintmask 11010010
          119 326 rmoveto
          -79 34 -85 28 72 vvcurveto
          40 21 30 39 23 vhcurveto
          79 -36 86 -26 -71 vvcurveto
          -41 -23 -30 -38 -23 vhcurveto
          endchar
        </CharString>
        <CharString name="semicolon">
          -330 0 127 272 127 hstem
          11 245 vstem
          108 399 rmoveto
          125 13 callsubr
          -125 hlineto
          -120 -674 -17 callsubr
          endchar
        </CharString>
        <CharString name="seven">
          -88 21 -21 577 109 hstem
          76 513 vstem
          76 hmoveto
          143 hlineto
          3 21 2 11 3 18 43 223 165 195 140 140 14 78 rcurveline
          -491 hlineto
          -19 -109 rlineto
          335 hlineto
          -143 -141 -155 -210 -40 -226 rrcurveto
          endchar
        </CharString>
        <CharString name="seveneighths">
          45 callsubr
          257 68 12 -20 hstemhm
          469 78 -40 76 72 77 -57 77 hintmask 1111001100000000
          17 -12 rmoveto
          90 hlineto
          hintmask 1110101100000000
          671 710 rlineto
          -90 hlineto
          -578 -373 rmoveto
          88 hlineto
          hintmask 1111001100000000
          9 116 89 111 82 83 9 51 rcurveline
          -262 hlineto
          -11 -68 rlineto
          167 hlineto
          hintmask 1110101100000000
          -74 -72 -77 -103 -20 -118 rrcurveto
          hintmask 1111010100000000
          481 -337 64 callgsubr
          -28 16 hvcurveto
          hintmask 1111001010000000
          38 callgsubr
          hintmask 1111010100000000
          74 callsubr
          hintmask 1111001010000000
          29 222 rmoveto
          -24 -13 20 callgsubr
          hintmask 1111010100000000
          -27 -159 rmoveto
          -30 -16 14 25 35 25 21 38 30 15 -13 -23 -38 -29 -21 -33 hvcurveto
          endchar
        </CharString>
        <CharString name="six">
          -88 -12 98 258 96 160 98 hstemhm
          25 121 234 126 -98 122 hintmask 11111000
          247 -12 rmoveto
          140 119 108 166 107 -57 71 -128 -74 -53 -39 -21 -24 hvcurveto
          hintmask 11110100
          135 26 33 85 101 hhcurveto
          54 24 -28 -51 -11 -1 -12 -2 -14 hvcurveto
          -34 callgsubr
          3 18 2 18 17 vvcurveto
          94 -58 67 -138 -149 -101 -90 -282 -47 vhcurveto
          -8 -47 -4 -41 -35 vvcurveto
          hintmask 11111000
          -160 83 -55 139 vhcurveto
          -6 98 rmoveto
          -65 -30 40 58 91 56 69 86 65 27 -39 -57 -86 -51 -76 -88 hvcurveto
          endchar
        </CharString>
        <CharString name="slash">
          -366 735 -20 hstem
          -68 414 vstem
          -68 -49 rmoveto
          86 hlineto
          328 784 rlineto
          -86 hlineto
          endchar
        </CharString>
        <CharString name="space">
          -366 endchar
        </CharString>
        <CharString name="sterling">
          -88 0 101 189 98 212 43 callsubr
          46 189 rlineto
          161 hlineto
          16 98 rlineto
          -159 hlineto
          22 125 3 callsubr
          -80 -61 -138 -25 vhcurveto
          -20 -111 rlineto
          -80 hlineto
          -16 -98 rlineto
          80 hlineto
          -34 -189 rlineto
          -66 hlineto
          endchar
        </CharString>
        <CharString name="summation">
          69 -128 112 630 109 -98 98 hstemhm
          -37 762 hintmask 11010000
          -37 -128 rmoveto
          630 hlineto
          20 112 rlineto
          -458 4 hlineto
          336 325 -221 297 1 4 rlineto
          434 25 callsubr
          -602 hlineto
          hintmask 10110000
          -18 -98 234 -318 -361 -348 rlineto
          endchar
        </CharString>
        <CharString name="t">
          -330 -12 46 callgsubr
          hintmask 00000000
          hintmask 11100000
          152 -12 -76 callgsubr
          endchar
        </CharString>
        <CharString name="tbar">
          -330 -12 98 171 68 103 98 hstemhm
          1 321 -285 123 hintmask 11110000
          304 428 rmoveto
          18 98 rlineto
          -91 hlineto
          34 147 rlineto
          hintmask 11101000
          56 callsubr
          -18 -103 rlineto
          -64 hlineto
          -11 -68 rlineto
          63 hlineto
          -15 -89 rlineto
          -9 -47 -3 -22 -13 vvcurveto
          -52 27 -46 88 24 34 8 8 20 vhcurveto
          14 82 rlineto
          -48 hlineto
          -24 -12 11 20 6 3 17 2 8 hvcurveto
          19 109 rlineto
          90 hlineto
          12 68 rlineto
          -90 hlineto
          18 103 rlineto
          endchar
        </CharString>
        <CharString name="tcaron">
          -201 -12 98 342 98 -55 55 58 89 -89 115 hstemhm
          31 484 -478 123 hintmask 00000000
          hintmask 10101100
          355 471 rmoveto
          62 hlineto
          80 124 18 104 -81 callsubr
          -20 -115 rlineto
          47 hlineto
          hintmask 11010010
          -270 -596 -76 callgsubr
          endchar
        </CharString>
        <CharString name="thorn">
          -152 -21 161 100 347 103 194 -20 hstem
          426 125 vstem
          15 callsubr
          -69 63 -114 -58 -54 -28 -45 -37 hvcurveto
          -7 hlineto
          47 267 -81 callsubr
          131 -644 rmoveto
          -67 -32 38 71 73 callgsubr
          -101 -35 -137 -121 hvcurveto
          endchar
        </CharString>
        <CharString name="three">
          -88 -12 98 214 98 202 98 hstemhm
          9 122 245 123 -83 126 hintmask 11111000
          240 -12 rmoveto
          142 117 86 137 75 -41 46 -58 20 hvcurveto
          1 4 rlineto
          hintmask 11110100
          76 30 65 52 99 vvcurveto
          104 -83 57 -129 -125 -106 -73 -119 -17 vhcurveto
          -4 -21 rlineto
          122 hlineto
          2 16 rlineto
          59 8 47 40 70 hhcurveto
          52 37 -23 -51 -87 -67 -41 -64 hvcurveto
          -61 80 callgsubr
          58 hlineto
          hintmask 11111000
          59 52 -17 -64 -92 -65 -41 -76 -67 -37 28 52 9 1 11 4 23 hvcurveto
          -121 hlineto
          -6 -28 0 -15 -13 vvcurveto
          -101 78 -64 153 vhcurveto
          endchar
        </CharString>
        <CharString name="threeeighths">
          45 callsubr
          -35 64 93 64 88 63 hstemhm
          57 77 107 78 -57 78 151 78 -40 76 72 77 -57 77 hintmask 1101111100110000
          44 -12 12 callsubr
          -535 -372 40 callsubr
          4 vlineto
          hintmask 1101111010110000
          41 18 27 25 46 11 callsubr
          7 rlineto
          31 6 22 15 26 hhcurveto
          23 16 -10 -23 -38 -32 -17 -31 hvcurveto
          hintmask 1101111100110000
          -1 callsubr
          hintmask 1101111101010000
          433 -338 64 callgsubr
          -28 16 hvcurveto
          hintmask 1110111100101000
          38 callgsubr
          hintmask 1101111101010000
          74 callsubr
          hintmask 1110111100101000
          29 222 rmoveto
          -25 -12 20 callgsubr
          hintmask 1101111101010000
          -27 -159 rmoveto
          -31 -15 14 25 35 24 21 39 29 16 -13 -23 -38 -29 -21 -33 hvcurveto
          endchar
        </CharString>
        <CharString name="threequarters">
          190 9 -21 87 64 187 64 93 64 88 63 hstemhm
          66 77 108 77 -56 78 hintmask 11111110
          51 -12 12 callsubr
          -532 -372 57 callgsubr
          hintmask 11111101
          23 callsubr
          7 21 15 27 hhcurveto
          23 16 -10 -23 -38 -33 -17 -31 hvcurveto
          hintmask 11111110
          61 callgsubr
          -17 -34 -29 -17 12 51 callgsubr
          -54 43 -33 81 vhcurveto
          425 -325 9 callsubr
          72 101 37 44 callgsubr
        </CharString>
        <CharString name="tilde">
          -311 607 76 callsubr
          -9 352 hintmask 00000000
          hintmask 10100000
          -9 41 callsubr
          hintmask 01100000
          -7 callgsubr
          hintmask 10100000
          48 35 -35 52 hhcurveto
          hintmask 01100000
          65 35 54 62 11 hvcurveto
          -68 hlineto
          hintmask 10100000
          -26 -8 -13 -9 -18 -48 -35 35 -53 hhcurveto
          -64 -35 -54 -62 -10 hvcurveto
          endchar
        </CharString>
        <CharString name="trademark">
          356 280 100 237 69 hstem
          110 837 vstem
          191 281 rmoveto
          73 hlineto
          59 336 rlineto
          139 hlineto
          12 69 rlineto
          -352 hlineto
          -12 -69 rlineto
          140 hlineto
          200 -337 rmoveto
          67 hlineto
          54 310 rlineto
          3 hlineto
          51 -310 rlineto
          69 hlineto
          161 311 rlineto
          2 hlineto
          -55 -311 rlineto
          74 hlineto
          71 406 rlineto
          -113 hlineto
          -156 -306 rlineto
          -4 hlineto
          -47 306 rlineto
          -106 hlineto
          endchar
        </CharString>
        <CharString name="two">
          -88 0 109 489 100 hstem
          424 123 vstem
          -16 hmoveto
          476 hlineto
          19 109 rlineto
          -316 hlineto
          7 10 11 11 14 12 rrcurveto
          107 90 245 91 206 vvcurveto
          85 -47 84 -159 -129 -126 -64 -184 -13 vhcurveto
          119 hlineto
          8 41 rlineto
          68 14 40 39 80 hhcurveto
          66 24 -36 -36 -192 -395 -66 -39 -234 hvcurveto
          endchar
        </CharString>
        <CharString name="u">
          -40 callgsubr
          -11 callgsubr
          hintmask 00000000
          hintmask 10110000
          188 -12 -62 callsubr
          hintmask 01110000
          -60 callsubr
          hintmask 10110000
          -103 callsubr
          vhcurveto
          endchar
        </CharString>
        <CharString name="uacute">
          -5 callgsubr
          291 591 -94 callgsubr
          hintmask 10111000
          -207 1 callsubr
          hintmask 01111000
          -60 callsubr
          hintmask 10111000
          -103 callsubr
          vhcurveto
          endchar
        </CharString>
        <CharString name="ubreve">
          -40 callgsubr
          87 65 callgsubr
          35 126 36 82 hintmask 01101110
          342 593 -83 callsubr
          hintmask 01110110
          -47 callsubr
          hintmask 01101110
          -89 callgsubr
          hintmask 10101110
          -154 -605 -62 callsubr
          hintmask 01101110
          -60 callsubr
          hintmask 10101110
          -103 callsubr
          vhcurveto
          endchar
        </CharString>
        <CharString name="ucircumflex">
          -40 callgsubr
          82 135 -63 63 -11 callgsubr
          hintmask 01110100
          176 588 -49 callsubr
          hintmask 01101100
          65 72 rlineto
          hintmask 10110100
          -99 callgsubr
          -117 1 callsubr
          hintmask 01110100
          -60 callsubr
          hintmask 10110100
          -103 callsubr
          vhcurveto
          endchar
        </CharString>
        <CharString name="udieresis">
          -40 callgsubr
          107 110 -11 callgsubr
          hintmask 01111000
          192 613 -99 callsubr
          hintmask 10111000
          6 callgsubr
          hintmask 01111000
          -60 callsubr
          hintmask 10111000
          -103 callsubr
          vhcurveto
          endchar
        </CharString>
        <CharString name="ugrave">
          -5 callgsubr
          297 591 -78 callsubr
          hintmask 10111000
          -24 -732 -62 callsubr
          hintmask 01111000
          -60 callsubr
          hintmask 10111000
          -103 callsubr
          vhcurveto
          endchar
        </CharString>
        <CharString name="uhorn">
          -40 callgsubr
          90 127 -11 callgsubr
          hintmask 01111000
          574 723 -37 callgsubr
          hintmask 10111000
          -103 callsubr
          55 callgsubr
          vhcurveto
          7 hlineto
          hintmask 01111000
          -33 callgsubr
          endchar
        </CharString>
        <CharString name="uhungarumlaut">
          -5 callgsubr
          210 591 rmoveto
          -52 callsubr
          hintmask 10111000
          -284 1 callsubr
          hintmask 01111000
          -60 callsubr
          hintmask 10111000
          -103 callsubr
          vhcurveto
          endchar
        </CharString>
        <CharString name="umacron">
          -40 callgsubr
          111 82 -11 callgsubr
          hintmask 01111000
          195 617 -59 callgsubr
          hintmask 10111000
          -22 -711 -62 callsubr
          hintmask 01111000
          -60 callsubr
          hintmask 10111000
          -103 callsubr
          vhcurveto
          endchar
        </CharString>
        <CharString name="underscore">
          -88 -148 83 hstem
          -74 569 vstem
          -74 -148 rmoveto
          555 hlineto
          14 83 rlineto
          -556 hlineto
          endchar
        </CharString>
        <CharString name="underscoredbl">
          -92 -279 78 58 78 hstem
          -93 588 vstem
          -70 -143 rmoveto
          551 hlineto
          14 78 rlineto
          -551 hlineto
          -37 -214 rmoveto
          550 hlineto
          15 78 rlineto
          -551 hlineto
          endchar
        </CharString>
        <CharString name="uni00A0">
          -366 endchar
        </CharString>
        <CharString name="uni00AD">
          17 callsubr
        </CharString>
        <CharString name="uni00B2">
          -311 331 68 235 64 hstem
          80 76 101 77 vstem
          33 331 rmoveto
          255 hlineto
          12 68 rlineto
          -158 hlineto
          43 44 149 48 115 vvcurveto
          46 -26 46 -85 -76 14 callsubr
          30 9 -18 -17 -85 -198 -33 -22 -125 hvcurveto
          endchar
        </CharString>
        <CharString name="uni00B3">
          -311 326 64 93 64 88 63 hstemhm
          51 77 107 78 -56 77 hintmask 11111000
          174 326 40 callsubr
          3 vlineto
          hintmask 11110100
          41 18 27 25 47 11 callsubr
          8 rlineto
          31 6 22 14 26 hhcurveto
          23 17 -10 -23 -38 -33 -17 -31 hvcurveto
          hintmask 11111000
          -1 callsubr
          endchar
        </CharString>
        <CharString name="uni00B5">
          -48 callsubr
        </CharString>
        <CharString name="uni00B9">
          -311 329 69 199 49 40 -20 hstem
          50 249 vstem
          50 329 rmoveto
          237 hlineto
          12 69 rlineto
          -77 hlineto
          51 288 rlineto
          -38 hlineto
          -38 -20 -57 -16 -33 -4 -10 -49 rcurveline
          84 hlineto
          -35 -199 rlineto
          -84 hlineto
          endchar
        </CharString>
        <CharString name="uni0162">
          -33 32 callsubr
          55 -21 576 110 hstemhm
          262 96 hintmask 10111100
          84 686 rmoveto
          -20 -110 rlineto
          221 hlineto
          -102 -576 rlineto
          24 hlineto
          -26 -77 -24 callsubr
          hintmask 01111100
          -9 -49 rlineto
          hintmask 10111100
          -5 callsubr
          11 34 rlineto
          27 hlineto
          101 576 rlineto
          221 hlineto
          19 110 rlineto
          endchar
        </CharString>
        <CharString name="uni0163">
          -330 32 callsubr
          22 46 callgsubr
          -35 96 hintmask 10011010
          214 428 rmoveto
          90 78 callgsubr
          -91 hlineto
          34 147 rlineto
          hintmask 10111100
          56 callsubr
          -45 -260 rlineto
          -9 -47 -3 -22 -13 vvcurveto
          -31 10 -29 26 -18 vhcurveto
          hintmask 10111010
          -29 -85 -24 callsubr
          hintmask 01011010
          -9 -49 rlineto
          hintmask 10111010
          -5 callsubr
          hintmask 10011100
          7 22 rlineto
          9 hlineto
          24 34 8 8 20 hvcurveto
          14 82 rlineto
          -48 hlineto
          -24 -12 11 20 6 3 17 2 8 hvcurveto
          endchar
        </CharString>
        <CharString name="uni018F">
          114 -12 105 183 100 218 104 hstem
          46 128 427 130 vstem
          335 -12 rmoveto
          128 93 33 73 64 hvcurveto
          68 77 43 149 108 vvcurveto
          171 -109 99 -187 -95 -77 -17 -33 -57 vhcurveto
          -71 -41 -43 -66 -16 -92 rrcurveto
          125 hlineto
          100 17 80 45 116 hhcurveto
          124 63 -52 -112 -17 -2 -18 -3 -19 hvcurveto
          -533 hlineto
          -9 -53 rlineto
          -5 -29 -3 -27 -26 vvcurveto
          -161 103 -92 186 vhcurveto
          19 105 rmoveto
          -108 -72 39 98 15 2 15 3 16 hvcurveto
          398 hlineto
          -129 -36 -65 -54 -122 hhcurveto
          endchar
        </CharString>
        <CharString name="uni019D">
          78 -182 97 106 42 callgsubr
          hstem
          -107 820 vstem
          -18 -182 rmoveto
          98 35 68 66 12 hvcurveto
          79 451 12 78 rlineto
          5 hlineto
          5 -10 15 -33 14 -28 215 -410 rcurveline
          120 -31 callsubr
          -123 hlineto
          -73 -417 -3 -14 -5 -38 -1 -7 rlinecurve
          -5 -1 -2 6 -16 34 -9 17 rlinecurve
          -221 420 rlineto
          -122 hlineto
          -128 -726 38 callsubr
        </CharString>
        <CharString name="uni01C4">
          689 0 109 468 109 47 135 46 callsubr
          1040 733 -96 callsubr
          -946 -868 rmoveto
          -72 callgsubr
          -260 hlineto
          551 -686 rmoveto
          -77 callgsubr
          -536 48 -69 callsubr
          endchar
        </CharString>
        <CharString name="uni01C5">
          61 callsubr
          -98 135 hstemhm
          557 132 hintmask 00000000
          hintmask 10101100
          975 588 -96 callsubr
          -881 -723 rmoveto
          294 hlineto
          114 93 39 67 66 hvcurveto
          72 76 38 110 123 vvcurveto
          hintmask 01110100
          186 -110 85 -186 vhcurveto
          -260 hlineto
          26 -577 -69 callsubr
          hintmask 10110100
          398 -109 rmoveto
          -79 callgsubr
          endchar
        </CharString>
        <CharString name="uni01C6">
          448 -12 103 -91 98 330 98 -88 100 50 135 -26 callsubr
          640 600 -96 callsubr
          -196 -723 rmoveto
          -79 callgsubr
          hintmask 10011100
          -336 35 -30 callgsubr
        </CharString>
        <CharString name="uni01C7">
          485 -12 108 -96 111 575 -20 hstemhm
          588 128 hintmask 01110000
          -31 callgsubr
          hintmask 10110000
          662 -698 -79 callsubr
        </CharString>
        <CharString name="uni01C8">
          207 -182 97 85 111 415 -20 102 115 -37 -20 hstemhm
          12 840 hintmask 11110100
          712 5 callsubr
          -720 -723 rmoveto
          497 hlineto
          77 callsubr
          -370 hlineto
          hintmask 11101100
          102 575 -61 callgsubr
          439 -868 -82 callsubr
        </CharString>
        <CharString name="uni01C9">
          -126 -182 97 106 34 callsubr
          102 115 hstem
          13 506 vstem
          13 70 callsubr
          -29 callsubr
          239 -115 -43 callgsubr
          -160 -905 -82 callsubr
        </CharString>
        <CharString name="uni01CA">
          615 -12 108 -75 -21 481 205 0 -20 hstemhm
          718 128 hintmask 00000000
          hintmask 01101000
          -28 callgsubr
          hintmask 10011000
          792 -698 -79 callsubr
        </CharString>
        <CharString name="uni01CB">
          337 -182 97 106 34 callsubr
          102 78 -78 115 hstemhm
          12 970 hintmask 11101100
          842 5 callsubr
          -850 -723 rmoveto
          123 hlineto
          73 418 4 19 4 36 2 8 rlinecurve
          5 hlineto
          3 -6 13 -30 13 -24 220 -421 rcurveline
          -34 callgsubr
          hintmask 11110100
          -27 callsubr
          -123 hlineto
          -73 -417 -3 -14 -5 -38 -1 -7 rlinecurve
          -5 -1 -2 6 -16 34 -9 17 rlinecurve
          -221 420 rlineto
          -122 hlineto
          569 -868 -82 callsubr
        </CharString>
        <CharString name="uni01CC">
          207 -182 97 106 8 callsubr
          102 115 26 callgsubr
          hintmask 11011100
          712 5 callsubr
          -716 -723 -20 callsubr
          50 283 rlineto
          hintmask 11101100
          -95 callsubr
          -69 -66 -37 -46 -38 vhcurveto
          -7 hlineto
          hintmask 11011100
          71 -97 vlineto
          463 -708 -82 callsubr
        </CharString>
        <CharString name="uni01CD">
          1 callgsubr
          26 callsubr
          374 733 -96 callsubr
          -341 -868 -102 callgsubr
        </CharString>
        <CharString name="uni01CE">
          -72 callsubr
          82 135 67 callgsubr
          358 588 rmoveto
          129 135 rlineto
          -110 hlineto
          -65 -72 -45 72 rlineto
          -99 hlineto
          82 -135 rlineto
          hintmask 10011100
          219 -475 -101 callsubr
        </CharString>
        <CharString name="uni01CF">
          3 callgsubr
          67 135 hstem
          17 376 vstem
          156 733 -96 callsubr
          -57 -868 rmoveto
          -62 callgsubr
          endchar
        </CharString>
        <CharString name="uni01D0">
          -23 callgsubr
          82 135 hstem
          21 347 vstem
          131 588 -96 callsubr
          -28 -14 callsubr
        </CharString>
        <CharString name="uni01D1">
          14 callgsubr
          hstem
          -54 callsubr
          vstem
          384 733 -96 callsubr
          40 -879 -107 callgsubr
          endchar
        </CharString>
        <CharString name="uni01D2">
          -26 callgsubr
          50 135 hstem
          -54 callgsubr
          vstem
          271 588 -96 callsubr
          66 -95 callgsubr
        </CharString>
        <CharString name="uni01D3">
          -50 callgsubr
          67 135 -23 callsubr
          387 733 -96 callsubr
          17 -880 -105 callsubr
          endchar
        </CharString>
        <CharString name="uni01D4">
          -40 callgsubr
          82 135 -11 callgsubr
          hintmask 01111000
          288 588 -96 callsubr
          hintmask 10111000
          -18 1 callsubr
          hintmask 01111000
          -60 callsubr
          hintmask 10111000
          -103 callsubr
          vhcurveto
          endchar
        </CharString>
        <CharString name="uni01D5">
          -50 callgsubr
          92 110 61 82 -23 callsubr
          324 929 -59 callgsubr
          -48 -253 -99 callsubr
          -190 -880 -105 callsubr
          endchar
        </CharString>
        <CharString name="uni01D6">
          -40 callgsubr
          107 110 61 82 -11 callgsubr
          hintmask 01111100
          225 784 -59 callgsubr
          -48 -253 -99 callsubr
          hintmask 10111100
          6 callgsubr
          hintmask 01111100
          -60 callsubr
          hintmask 10111100
          -103 callsubr
          vhcurveto
          endchar
        </CharString>
        <CharString name="uni01D7">
          -50 callgsubr
          92 110 35 31 callgsubr
          420 903 -94 callgsubr
          -233 -277 -99 callsubr
          -190 -880 -105 callsubr
          endchar
        </CharString>
        <CharString name="uni01D8">
          -40 callgsubr
          107 110 35 132 -11 callgsubr
          hintmask 01111100
          321 758 -94 callgsubr
          -233 -277 -99 callsubr
          hintmask 10111100
          6 callgsubr
          hintmask 01111100
          -60 callsubr
          hintmask 10111100
          -103 callsubr
          vhcurveto
          endchar
        </CharString>
        <CharString name="uni01D9">
          -50 callgsubr
          92 110 32 135 -23 callsubr
          417 900 -96 callsubr
          -44 -277 -99 callsubr
          -190 -880 -105 callsubr
          endchar
        </CharString>
        <CharString name="uni01DA">
          -40 callgsubr
          107 110 32 135 -11 callgsubr
          hintmask 01111100
          318 755 -96 callsubr
          -44 -277 -99 callsubr
          hintmask 10111100
          6 callgsubr
          hintmask 01111100
          -60 callsubr
          hintmask 10111100
          -103 callsubr
          vhcurveto
          endchar
        </CharString>
        <CharString name="uni01DB">
          -50 callgsubr
          92 110 35 31 callgsubr
          426 903 -78 callsubr
          -50 -274 -99 callsubr
          -190 -880 -105 callsubr
          endchar
        </CharString>
        <CharString name="uni01DC">
          -40 callgsubr
          107 110 35 132 -11 callgsubr
          hintmask 01111100
          327 758 -78 callsubr
          -50 -274 -99 callsubr
          hintmask 10111100
          6 callgsubr
          hintmask 01111100
          -60 callsubr
          hintmask 10111100
          -103 callsubr
          vhcurveto
          endchar
        </CharString>
        <CharString name="uni01EA">
          134 -182 68 103 -45 callsubr
          hstem
          35 131 167 102 178 132 vstem
          436 698 rmoveto
          -219 -140 -131 -219 -35 hvcurveto
          -5 -30 -2 -30 -31 vvcurveto
          -178 114 -91 193 1 vhcurveto
          13 13 0 1 12 hvcurveto
          -25 -23 -22 -31 -42 -38 callsubr
          1 vlineto
          141 45 90 118 25 170 rrcurveto
          4 29 3 29 31 vvcurveto
          176 -115 91 -194 vhcurveto
          167 -362 -47 callgsubr
          154 27 88 85 146 hhcurveto
          115 61 -62 -104 -23 -2 -22 -8 -43 hvcurveto
          endchar
        </CharString>
        <CharString name="uni01EB">
          -182 68 102 99 353 98 hstem
          23 118 88 102 98 117 vstem
          313 538 rmoveto
          -63 callsubr
          19 hlineto
          -24 -23 -21 -30 -41 -38 callsubr
          1 vlineto
          90 36 53 80 19 116 rrcurveto
          4 28 2 27 28 vvcurveto
          -2 129 -92 86 -139 -1 rrcurveto
          111 -276 -48 callgsubr
          121 16 51 55 94 hhcurveto
          78 44 -42 -72 1 hvcurveto
          39 callgsubr
        </CharString>
        <CharString name="uni01F1">
          689 0 109 468 30 callgsubr
          10 callgsubr
          551 -686 rmoveto
          -77 callgsubr
          -536 48 -69 callsubr
          endchar
        </CharString>
        <CharString name="uni01F2">
          61 callsubr
          hstemhm
          557 132 hintmask 10111000
          10 callgsubr
          hintmask 01111000
          26 -577 -69 callsubr
          hintmask 10111000
          398 -109 rmoveto
          -79 callgsubr
          endchar
        </CharString>
        <CharString name="uni01F3">
          448 -12 103 -91 98 330 98 -88 100 185 -20 -26 callsubr
          362 12 rmoveto
          -79 callgsubr
          hintmask 10011100
          -336 35 -30 callgsubr
        </CharString>
        <CharString name="uni01F4">
          -37 callsubr
          38 132 8 callgsubr
          hintmask 10111110
          627 865 -29 callgsubr
          236 -284 -91 callgsubr
        </CharString>
        <CharString name="uni01F5">
          -22 callsubr
          85 132 80 callsubr
          hintmask 11101100
          267 591 -94 callgsubr
          -164 -905 -13 callgsubr
          hintmask 11011100
          27 callsubr
          hintmask 11101100
          -86 callgsubr
          13 callgsubr
          -73 callsubr
        </CharString>
        <CharString name="uni0200">
          -70 callgsubr
          50 132 26 callsubr
          318 736 -84 callgsubr
          -452 -865 -102 callgsubr
        </CharString>
        <CharString name="uni0201">
          -72 callsubr
          85 132 67 callgsubr
          289 591 rmoveto
          -50 132 -81 callsubr
          -2 -3 77 -129 rlineto
          257 hmoveto
          -49 132 -19 callgsubr
          -2 -3 77 -129 rlineto
          hintmask 10011100
          113 -478 -101 callsubr
        </CharString>
        <CharString name="uni0202">
          -70 callgsubr
          102 80 26 callsubr
          273 738 -88 callsubr
          -322 -81 callgsubr
          endchar
        </CharString>
</ttFont>
